<svg width="1174" height="808" viewBox="0 0 1174 808" fill="none" xmlns="http://www.w3.org/2000/svg">
<path fill-rule="evenodd" clip-rule="evenodd" d="M750.9 487.639C761.958 498.213 783.092 519.741 763.819 523.437C709.568 533.84 669.07 524.434 636.287 510.114C625.032 505.198 616.248 500.676 608.19 496.528C580.754 482.403 561.732 472.61 482.252 466.345C419.611 461.407 380.945 465.848 347.837 469.65C326.598 472.089 307.646 474.266 286.121 473.535C230.054 471.632 187.287 458.828 152.438 408.827C104.041 339.387 99.4431 327.952 72.1986 260.194C64.306 240.565 54.513 216.209 41.2041 184.348C-1.86958 81.2284 -13.5702 32.4414 -18.3006 12.7175C-19.2916 8.58538 -19.9767 5.72882 -20.5803 3.9155L-56.1403 60.1704C-51.4433 69.0998 -47.635 73.8938 -43.1969 79.4805C-32.5007 92.9452 -18.1463 111.015 21.1246 202.679C76.6898 332.377 121.973 395.1 130.963 406.583C131.985 407.889 133.249 409.781 134.814 412.124C147.014 430.392 177.491 476.026 254.013 484.02C263.808 485.043 279.834 482.724 300.727 479.7C339.848 474.038 396.034 465.906 460.33 472.622C478.917 474.564 491.897 475.569 502.029 476.353C526.297 478.232 534.224 478.846 563.72 488.036C578.379 492.603 587.022 496.638 596.447 501.039C611.575 508.103 628.718 516.107 675.985 528.759C700.472 535.314 759.392 528.519 765.368 525.576C777.511 519.595 771.823 510.434 767.985 504.761C766.206 502.131 762.901 498.299 760.105 495.37C760.027 495.289 759.949 495.208 759.87 495.128L752.106 487.123C756.338 487.158 760.638 487.057 764.984 486.834C796.124 485.236 829.672 477.396 857.704 468.6C857.582 468.582 857.459 468.564 857.337 468.546C839.387 474.053 815.962 479.425 782.133 483.832C766.941 485.812 756.855 486.749 750.389 487.051L750.336 487.101C750.525 487.285 750.713 487.464 750.9 487.639ZM910.794 448.07C910.786 448.094 910.778 448.119 910.77 448.144C910.937 448.061 911.103 447.979 911.267 447.897C911.109 447.954 910.952 448.012 910.794 448.07Z" fill="#F04E4B"/>
<path d="M919.112 507.282C992.321 511.72 1128.76 459.022 1128.76 459.022C1071.38 478.394 987.67 509.591 920.685 502.594C801.983 490.194 758.234 479.359 723.067 480.957C687.9 482.556 663.444 487.926 648.839 500.222C634.234 512.518 631.709 525.273 632.878 542.749C634.047 560.224 644.68 578.21 644.68 578.21C644.68 578.21 591.535 545.084 557.004 526.875C522.474 508.665 513.521 504.363 473.164 487.587C432.806 470.81 348.579 439.506 233.651 432.92C118.723 426.333 119.705 426.901 21.7794 439.71C-76.1458 452.52 -105.368 477.763 -105.368 477.763L-105.998 512.314L-84.5587 505.951C-84.5587 505.951 -60.7758 479.864 23.338 463.011C107.452 446.159 136.767 443.038 223.941 448.709C311.115 454.379 364.541 461.593 430.522 487.275C496.504 512.958 498.987 512.748 538.292 532.868C577.597 552.988 635.466 588.465 635.466 588.465L681.108 614.56C600.08 516.595 659.328 497.364 699.49 490.356C745.405 482.345 830.132 501.888 919.112 507.282Z" fill="#4D4D4D"/>
</svg>
