<svg width="638" height="318" viewBox="0 0 638 318" fill="none" xmlns="http://www.w3.org/2000/svg">
<path d="M219.601 0.885826C217.809 1.8504 216.351 3.30709 215.405 5.07875C214.637 6.51576 213.731 9.42916 213.317 11.8111C213.14 12.8347 212.805 14.4292 212.608 15.3544C212.392 16.2796 212.136 17.7756 212.017 18.7008C211.682 21.4961 211.229 28.3072 211.229 30.63C211.229 32.6379 211.269 32.8347 211.682 33.2087C211.919 33.4253 212.333 33.6615 212.608 33.7206C212.884 33.7796 213.455 33.9174 213.889 34.0355C214.322 34.1536 215.13 34.2521 215.681 34.2521C216.942 34.2521 217.296 34.567 216.902 35.3741C216.765 35.6694 216.252 36.2009 215.76 36.5552C214.007 37.8151 213.77 38.0513 213.396 38.7796C213.16 39.2521 212.805 39.6064 212.411 39.7245C211.663 40.0001 210.343 40.9056 209.417 41.8111C208.196 42.9922 207.29 46.7915 207.29 50.6891C207.29 51.5553 207.172 54.2915 206.994 56.7915C206.206 69.3112 206.128 72.6774 206.6 74.3112C206.955 75.5317 207.526 76.1026 208.61 76.2797C210.185 76.5356 210.008 77.0671 207.585 79.1144C205.97 80.4923 205.694 80.8467 205.32 81.8309C204.394 84.3112 204.118 85.8467 203.961 89.3703C203.823 92.3821 203.862 93.2876 204.256 96.5357C204.749 100.453 204.887 100.906 206.187 102.343C207.369 103.662 209.693 104.528 212.057 104.528C213.436 104.528 213.869 104.449 214.874 103.977C218.616 102.205 222.457 95.8467 223.245 90.138C223.383 89.2325 223.56 88.327 223.679 88.1105C223.777 87.9136 223.915 86.6341 223.974 85.2561C224.151 81.2601 223.659 80.0593 221.61 79.5081C220.507 79.2128 217.612 79.39 214.834 79.9215C212.116 80.4333 210.56 80.3939 210.481 79.8034C210.323 78.701 212.372 77.4805 215.878 76.5553C220.231 75.4136 223.147 75.0986 223.915 75.6892C224.407 76.0632 225.609 76.0829 225.609 75.7285C225.609 75.5711 225.373 75.2561 225.097 74.9805C224.624 74.5278 224.447 74.5081 221.728 74.449C219.857 74.4096 218.084 74.4884 216.548 74.7049C214.007 75.0396 213.199 74.9215 213.199 74.2325C213.199 73.7994 214.755 72.697 216.351 71.9884C217.139 71.634 217.454 71.6144 219.798 71.7522C224.269 72.0474 224.841 71.9096 225.235 70.4333C225.353 69.9608 225.964 68.1695 226.594 66.4372C227.776 63.2088 229.549 56.7521 229.549 55.6891C229.549 55.3742 229.667 54.8033 229.824 54.4293C230.021 53.9962 230.159 52.6182 230.258 50.6497C230.356 48.0907 230.336 47.323 230.061 46.2796C229.608 44.4883 228.859 43.2285 227.638 42.2442L226.594 41.3781L224.565 41.2403C222.91 41.1222 221.689 41.2009 218.104 41.6536C215.661 41.9489 213.534 42.1458 213.337 42.067C213.16 42.008 212.963 41.7127 212.884 41.4174C212.726 40.7678 212.983 40.5513 214.558 39.9214C215.839 39.4489 218.656 39.3505 222.812 39.6458C225.392 39.8426 225.865 39.6655 224.427 39.0946C223.541 38.7403 220.586 38.1891 219.601 38.1891C218.656 38.1891 218.321 38.0119 218.321 37.4804C218.321 36.5749 219.109 36.319 221.866 36.319C224.309 36.319 224.348 36.319 225.806 37.0473C226.614 37.441 227.559 37.8151 227.894 37.8938C228.465 38.0119 228.524 37.9529 229.608 36.2206C230.218 35.256 230.73 34.4095 230.73 34.3505C230.73 34.2914 231.164 33.071 231.696 31.6339C232.72 28.8583 233.626 24.941 234.197 20.6693C234.808 16.1024 234.256 7.75592 233.193 5.70867C232.996 5.33466 232.168 4.33072 231.341 3.46457C230.1 2.14567 229.529 1.7126 227.973 0.944881L226.121 -3.57255e-06L223.639 0.0196815L221.177 0.0590517L219.601 0.885826Z" fill="#C4C4C4"/>
<path d="M276.725 16.949C275.209 17.382 273.475 18.1891 272.057 19.0946C270.205 20.2757 267.034 24.8624 264.966 29.3702C264.316 30.8073 263.646 32.1655 263.508 32.3821C263.37 32.5986 263.016 33.5829 262.74 34.5474C262.07 36.8309 258.84 46.6341 257.126 51.575C256.279 53.9766 255.747 55.8861 255.668 56.6735C255.57 57.7955 255.471 57.9924 254.802 58.6617C252.911 60.4924 251.61 63.1499 249.463 69.5869C248.616 72.1853 247.238 76.2601 246.41 78.6223C245.15 82.205 244.913 83.1302 244.953 83.9373C245.031 85.2365 245.248 85.335 248.616 85.709C251.433 86.0239 251.945 86.2011 252.123 86.9098C252.261 87.4806 252.103 87.7956 251.63 87.7956C251.453 87.7956 251.118 87.9137 250.921 88.0712C250.567 88.3271 250.567 88.3468 250.941 88.4452C251.138 88.5043 251.689 88.6027 252.142 88.6814C253.088 88.8192 253.462 89.1736 253.285 89.7247C253.127 90.2562 252.654 90.3547 250.212 90.3547C247.71 90.3547 246.804 90.709 244.992 92.461C243.869 93.5437 242.352 95.7878 242.352 96.3586C242.352 96.5161 242.136 97.5397 241.86 98.6421C241.092 101.792 240.875 104.961 241.269 107.5C241.683 110.355 242.057 111.654 242.904 113.386C243.515 114.607 243.81 115 244.697 115.591C245.681 116.28 245.878 116.339 247.159 116.339C248.36 116.339 248.774 116.241 249.995 115.65C254.467 113.524 257.284 110.512 260.061 104.941C261.262 102.559 262.444 99.1736 262.444 98.1303C262.444 97.5397 262.267 97.1854 261.538 96.3193C261.046 95.7484 260.1 94.9019 259.47 94.4689C257.559 93.1893 257.185 92.1263 258.603 92.1263C259.411 92.1263 260.159 92.461 261.479 93.4255C262.543 94.1933 262.799 94.2326 263.784 93.7208C265.241 92.9531 267.073 90.6499 269.24 86.831C271.111 83.5043 271.23 83.1696 273.475 74.8428L275.09 68.8782L274.657 68.4058C274.421 68.1499 273.731 67.6774 273.121 67.3625C271.525 66.5357 264.729 64.0554 263.331 63.7995C261.479 63.4648 260.317 63.0121 259.884 62.4609C259.391 61.8113 259.391 61.3979 259.903 60.7483C260.278 60.2758 260.415 60.2365 261.853 60.2365C262.996 60.2365 263.449 60.1577 263.646 59.9215C264.335 59.0947 264.985 58.9569 268.098 58.9766C270.658 58.9963 271.171 59.0357 271.486 59.331C271.919 59.7247 277.06 61.4176 277.828 61.4176C278.833 61.4176 279.266 60.5908 279.759 57.7758C280.35 54.4294 281.374 51.3979 284.585 43.5435C286.456 38.9766 288.308 33.6616 289.293 30.1183C289.805 28.1891 289.903 27.5198 289.923 25.5907C289.923 23.445 289.884 23.2679 289.293 21.9883C288.387 20.0986 286.614 18.3072 284.723 17.3623C283.265 16.6537 283.206 16.634 280.685 16.5946C278.577 16.5552 277.848 16.6143 276.725 16.949Z" fill="#C4C4C4"/>
<path d="M163.679 20.0197C163.088 20.2166 162.28 20.7481 161.591 21.3977C158.931 23.8583 157.651 28.6615 157.651 36.1812C157.651 39.4095 157.691 39.7442 158.084 40.5513C158.439 41.2403 158.774 41.5552 159.522 41.9292C160.429 42.382 160.724 42.4214 163.423 42.441C166.653 42.441 167.086 42.5985 166.83 43.5828C166.673 44.2127 166.299 44.4096 164.545 44.7836C162.871 45.1379 161.295 45.1576 160.429 44.8623C160.074 44.7442 159.739 44.7048 159.68 44.7639C159.463 44.9804 159.621 46.4765 159.916 47.0474C160.369 47.9332 160.744 47.9135 162.221 47.0277C163.403 46.2993 163.639 46.2403 164.053 46.4174C164.644 46.693 164.703 47.4411 164.211 47.8741C164.014 48.0513 163.482 48.3663 163.009 48.6025C161.453 49.3899 160.763 51.2403 160.31 55.9056C159.838 60.7876 159.975 63.4057 160.921 67.1065C161.453 69.2325 162.142 70.7679 163.6 73.2088C165.983 77.1459 167.638 77.9726 170.967 76.949C173.193 76.26 174.69 76.4569 174.552 77.4411C174.473 78.0317 172.799 79.0947 171.676 79.2522C170.474 79.4293 169.45 79.9412 168.78 80.7286C168.17 81.4569 168.17 81.1616 168.997 86.9097C169.785 92.4215 170.415 95.8467 171.065 98.0318C171.4 99.1735 171.834 100.67 172.05 101.378C172.247 102.087 172.7 103.229 173.055 103.937C173.666 105.158 173.784 105.256 175.202 105.985C176.502 106.634 176.916 106.752 178.058 106.772C179.201 106.792 179.555 106.713 180.323 106.26C183.337 104.488 184.283 103.032 185.012 98.9373C185.287 97.4412 185.307 88.9569 185.031 86.89C184.775 84.8231 183.14 77.8545 182.786 77.3033C182.628 77.0671 182.451 76.5553 182.392 76.1813C182.333 75.8073 181.919 74.9215 181.486 74.2128C180.481 72.5789 180.383 72.0081 180.796 70.1577C181.092 68.8584 181.092 68.3466 180.914 66.4175C180.363 60.7876 179.279 56.6734 176.62 50.0985C174.985 46.1222 174.926 45.8859 174.67 43.504C174.532 42.1458 174.394 39.8426 174.394 38.3859C174.375 34.193 173.725 26.693 173.252 25.3544C172.464 23.13 170.514 21.0237 168.524 20.2559C167.027 19.6851 164.939 19.5867 163.679 20.0197Z" fill="#C4C4C4"/>
<path d="M324.808 44.6655C324.73 44.7836 324.198 44.8821 323.626 44.8821C321.42 44.8821 317.973 46.5553 315.55 48.8191C314.506 49.7836 311.847 53.3663 309.798 56.5553C309.07 57.6577 308.164 58.9963 307.75 59.5475C306.036 61.7916 302.53 68.5632 301.584 71.4372C301.289 72.3231 300.737 73.4451 300.363 73.9373C299.181 75.4727 297.31 78.8979 297.31 79.5278C297.31 79.6066 298.334 79.9215 299.595 80.2365C302.077 80.827 304.145 81.7129 305.386 82.6971C307.356 84.2916 305.563 84.6656 302.175 83.3861C300.048 82.579 299.95 82.7168 301.565 84.4688C302.471 85.4727 302.648 85.7483 302.589 86.2798C302.53 86.9097 302.53 86.9097 301.466 86.8901C300.6 86.8507 299.95 86.6341 297.763 85.5515C296.305 84.8428 294.907 84.2522 294.651 84.2522C294.277 84.2522 293.843 84.6853 292.72 86.1617C290.829 88.6814 285.728 95.9649 283.718 99.0358C281.946 101.752 280.37 104.744 280.665 104.863C280.783 104.902 281.315 105.178 281.847 105.473C282.635 105.906 282.852 106.122 282.891 106.595C282.95 106.969 282.852 107.244 282.615 107.422C282.221 107.717 280.074 107.756 278.991 107.5C277.986 107.284 277.809 107.402 277.809 108.327C277.809 109.351 277.73 109.429 276.568 110.02C274.874 110.867 273.219 113.012 269.713 118.839C267.093 123.189 266.463 124.508 266.187 126.201C265.734 129.193 267.152 131.969 269.792 133.248C271.644 134.134 274.973 133.977 277.238 132.874C278.459 132.284 282.024 129.548 282.202 129.056C282.261 128.918 282.793 128.524 283.384 128.189C284.861 127.363 287.934 124.41 288.308 123.465C288.86 122.087 288.919 121.3 288.544 120.02C288.347 119.351 288.013 118.622 287.816 118.406C287.087 117.579 286.417 116.024 286.279 114.823C286.141 113.622 286.082 113.524 284.743 112.126C282.714 109.981 282.655 109.252 284.546 109.252C285.787 109.252 286.614 109.607 288.328 110.906C289.096 111.496 290.101 112.146 290.573 112.382C291.026 112.618 292.011 113.386 292.76 114.075C293.508 114.784 294.277 115.355 294.473 115.355C295.36 115.355 298.965 112.461 300.343 110.65C302.491 107.835 305.229 103.406 306.548 100.591C307.73 98.0712 307.73 98.0318 306.804 96.5948C305.8 95.0791 304.992 93.3468 304.992 92.7562C304.992 91.5357 306.568 92.3625 307.75 94.1932C308.282 95.0594 308.676 95.4728 308.932 95.4728C309.247 95.4728 309.326 95.335 309.326 94.8822C309.326 94.0161 308.951 93.3861 307.257 91.4176C306.45 90.4727 305.78 89.5869 305.78 89.4491C305.78 89.331 305.898 89.1145 306.056 88.9767C306.45 88.6617 307.612 89.1932 309.542 90.5908C311.02 91.6538 311.493 91.8704 312.871 92.0672C313.541 92.146 313.62 92.1066 314.447 90.9649C314.94 90.3153 315.432 89.3901 315.57 88.9373C316.082 87.146 317.264 84.1145 317.993 82.6774C318.406 81.8704 319.214 80.1774 319.766 78.9373C322.937 71.9491 323.193 71.575 325.064 70.8861C326.463 70.3743 327.133 69.6853 328.728 67.1262C331.821 62.1065 333.672 57.5002 333.869 54.2522C334.125 50.3545 332.806 47.6577 329.595 45.5317C328.571 44.8624 325.064 44.2324 324.808 44.6655Z" fill="#C4C4C4"/>
<path d="M192.812 113.8C192.497 113.918 190.941 114.075 189.365 114.174C185.937 114.37 182.313 115.02 181.092 115.67C180.599 115.926 180.107 116.142 179.989 116.142C179.89 116.142 178.945 116.811 177.92 117.638C176.896 118.445 175.182 119.666 174.099 120.335C171.932 121.674 168.84 123.957 167.579 125.138C166.673 125.985 165.215 127.717 164.033 129.331C163.206 130.473 159.247 138.367 158.597 140.158C158.38 140.748 158.144 141.792 158.045 142.461C157.947 143.17 157.553 144.39 157.1 145.414C155.445 149.036 155.15 150.473 154.184 159.548C153.692 164.095 153.219 167.894 153.121 167.993C153.002 168.111 152.924 168.76 152.924 169.469C152.924 171.182 152.293 176.772 151.446 182.481C151.092 185.02 150.639 188.308 150.461 189.764C150.284 191.221 149.871 193.682 149.555 195.197C148.945 198.15 148.866 199.745 149.181 201.91C149.28 202.658 149.555 204.882 149.772 206.89C150.205 210.788 150.127 210.512 152.254 215.119C153.062 216.871 155.031 219.764 156.45 221.3C158.538 223.564 163.482 227.127 165.629 227.934C166.24 228.17 167.067 228.505 167.461 228.721C169.253 229.607 176.364 231.516 179.24 231.871C180.461 232.009 180.521 232.009 182.116 231.142C183.022 230.67 184.066 230.099 184.48 229.883C185.012 229.607 185.839 229.469 187.828 229.331C189.266 229.233 191.906 229.056 193.698 228.938C195.649 228.8 197.264 228.78 197.737 228.879C198.446 229.036 198.524 229.115 198.584 229.705C198.662 230.552 198.288 230.965 196.87 231.477C195.708 231.89 194.683 232.56 194.683 232.894C194.683 232.993 195.589 233.524 196.712 234.075C197.815 234.627 199.076 235.335 199.509 235.631C200.888 236.556 205.005 238.78 205.36 238.78C205.852 238.78 205.813 238.426 205.005 235.198C204.375 232.678 204.316 232.205 204.434 230.709C204.69 227.383 205.911 222.009 206.876 220.079C207.172 219.489 208.078 217.678 208.886 216.044C210.481 212.835 211.998 210.197 212.648 209.508C213.16 208.957 213.79 208.938 214.381 209.41C214.696 209.666 214.795 209.883 214.696 210.178C214.618 210.394 213.712 211.772 212.668 213.209C210.777 215.867 209.851 217.481 209.851 218.209C209.851 218.426 209.654 218.918 209.437 219.292C208.452 220.906 207.546 226.241 207.783 229.135C208.196 234.627 209.555 239.213 211.663 242.264C213.771 245.355 218.932 248.977 222.95 250.178C225.294 250.887 229.135 251.497 233.488 251.89C235.832 252.107 240.186 250.965 243.121 249.39C246.134 247.776 247.651 246.497 253.403 240.729C257.697 236.418 259.312 234.942 260.1 234.528C262.602 233.268 266.029 230.375 268.413 227.501C269.792 225.847 272.49 220.965 272.49 220.138C272.49 219.883 272.628 219.449 272.805 219.174C273.081 218.76 273.121 218.268 273.022 215.886C272.904 212.757 272.707 212.068 270.737 207.776C269.851 205.847 269.733 205.453 269.733 204.292C269.733 201.812 271.564 197.737 273.79 195.296C275.543 193.347 276.134 192.067 276.134 190.237C276.134 189.469 276.036 188.623 275.898 188.367C275.78 188.111 275.524 187.441 275.346 186.89C274.972 185.65 274.204 184.43 273.121 183.308C272.195 182.343 272.195 182.363 272.608 180.315C272.766 179.489 272.943 177.087 273.002 174.902C273.14 170.237 272.884 167.737 271.761 163.347L271.033 160.453L271.88 159.252C272.825 157.894 273.909 155.63 274.224 154.331C274.342 153.839 274.499 152.323 274.578 150.965C274.696 148.918 274.657 148.288 274.401 147.52C274.224 146.989 274.027 146.221 273.968 145.827C273.909 145.434 273.534 144.626 273.16 144.056C272.766 143.485 272.313 142.737 272.155 142.422C271.111 140.355 265.99 135.079 262.937 132.894C260.75 131.339 258.19 130.099 257.067 130.059C256.259 130.02 256.239 130.04 256.18 130.67C256.141 131.044 256.259 131.733 256.417 132.244C256.791 133.307 256.83 134.469 256.496 134.804C256.358 134.941 256.003 135.04 255.708 135.04C255.274 135.04 255.058 134.863 254.664 134.252C253.048 131.713 246.154 126.083 242.096 123.996C240.264 123.071 239.673 122.658 239.437 122.185C238.551 120.492 236.817 119.548 234 119.193C232.582 119.016 225.117 119.607 223.718 120C222.93 120.237 221.729 120.276 218.301 120.237L213.889 120.178L212.609 119.39C211.899 118.977 210.993 118.327 210.58 117.992C209.477 117.067 206.581 115.65 204.591 115.04C203.626 114.764 202.641 114.41 202.366 114.272C202.09 114.115 201.459 113.918 200.947 113.8C199.805 113.544 193.62 113.544 192.812 113.8Z" fill="#C4C4C4"/>
<path d="M329.161 192.245C327.546 192.619 325.773 193.15 325.222 193.426C323.153 194.469 320.612 196.26 320.041 197.068C319.745 197.501 318.839 198.347 318.012 198.938C316.338 200.158 315.707 200.257 315.274 199.371C314.604 197.973 313.482 198.308 311.886 200.355C310.803 201.753 310.074 202.323 308.399 203.091C307.474 203.524 307.277 203.544 307.04 203.308C306.824 203.091 306.804 202.914 307.001 202.442C307.474 201.182 306.646 200.768 305.445 201.694C305.09 201.969 304.263 202.973 303.613 203.957C302.963 204.922 302.234 205.827 301.978 205.985C301.604 206.221 301.032 206.182 297.388 205.65C292.779 204.961 293.724 204.942 286.101 205.847L283.245 206.182L281.788 207.56C279.424 209.804 277.986 212.068 277.612 214.135C277.513 214.646 277.316 215.414 277.139 215.847C276.568 217.323 276.883 221.241 277.749 223.17C278.045 223.859 278.281 224.075 279.187 224.489C280.704 225.158 281.689 225.02 284.407 223.721C287.342 222.304 289.155 221.792 293.862 221.044C295.281 220.827 297.526 220.434 298.866 220.158C300.225 219.902 301.604 219.686 301.919 219.666C302.254 219.666 303.14 219.331 303.889 218.938C305.189 218.249 305.307 218.111 306.292 216.438C307.966 213.564 308.025 213.485 308.439 213.485C309.01 213.485 309.03 214.587 308.557 218.406C308.084 222.107 308.065 222.717 308.399 222.993C308.557 223.131 309.207 223.032 310.468 222.717L312.28 222.264L318.741 222.54C322.287 222.698 326.778 222.914 328.728 223.052C332.549 223.308 331.939 223.367 337.198 222.245C341.65 221.3 344.132 220.473 346.515 219.154C351.302 216.536 353.527 213.957 354.631 209.804C355.123 207.914 355.123 207.422 354.631 205.158C353.626 200.571 352.07 198.406 347.933 195.768C345.254 194.075 344.9 193.918 341.531 192.875C336.331 191.28 333.869 191.142 329.161 192.245Z" fill="#C4C4C4"/>
<path d="M20.8594 201.547H7.75391V208.441H13.5742C15.6576 208.441 17.474 208.799 19.0234 209.516C20.5729 210.232 21.7513 211.247 22.5586 212.562C23.3659 213.878 23.7695 215.401 23.7695 217.133C23.7695 219.789 22.8646 221.924 21.0547 223.539C19.2578 225.154 16.8034 225.974 13.6914 226H2.8125V197.562H20.8594V201.547ZM7.75391 212.406V222.055H13.5547C15.2214 222.055 16.5169 221.605 17.4414 220.707C18.3789 219.796 18.8477 218.591 18.8477 217.094C18.8477 215.661 18.3919 214.529 17.4805 213.695C16.569 212.862 15.306 212.432 13.6914 212.406H7.75391ZM39.9609 204.867H44.6875V226H39.9609V211.898L31.6797 226H26.9531V204.867H31.6797V218.969L39.9609 204.867ZM66.3672 208.637H59.5117V226H54.7656V208.637H47.9883V204.867H66.3672V208.637ZM69.9023 226V204.867H78.4766C81.3672 204.867 83.5677 205.375 85.0781 206.391C86.5885 207.393 87.3438 208.839 87.3438 210.727C87.3438 211.703 87.0378 212.582 86.4258 213.363C85.8268 214.132 84.9349 214.724 83.75 215.141C85.1302 215.427 86.224 216.007 87.0312 216.879C87.8385 217.751 88.2422 218.78 88.2422 219.965C88.2422 221.931 87.513 223.428 86.0547 224.457C84.6094 225.486 82.526 226 79.8047 226H69.9023ZM74.6484 216.996V222.25H79.8438C82.2786 222.25 83.4961 221.378 83.4961 219.633C83.4961 217.875 82.2591 216.996 79.7852 216.996H74.6484ZM74.6484 213.598H78.5547C81.25 213.598 82.5977 212.803 82.5977 211.215C82.5977 209.548 81.3216 208.689 78.7695 208.637H74.6484V213.598ZM104.98 226C104.772 225.596 104.59 224.939 104.434 224.027C102.923 225.603 101.074 226.391 98.8867 226.391C96.7643 226.391 95.0326 225.785 93.6914 224.574C92.3503 223.363 91.6797 221.866 91.6797 220.082C91.6797 217.829 92.513 216.104 94.1797 214.906C95.8594 213.695 98.2552 213.09 101.367 213.09H104.277V211.703C104.277 210.609 103.971 209.737 103.359 209.086C102.747 208.422 101.816 208.09 100.566 208.09C99.4857 208.09 98.6003 208.363 97.9102 208.91C97.2201 209.444 96.875 210.128 96.875 210.961H92.1289C92.1289 209.802 92.513 208.721 93.2812 207.719C94.0495 206.703 95.0911 205.909 96.4062 205.336C97.7344 204.763 99.2122 204.477 100.84 204.477C103.314 204.477 105.286 205.102 106.758 206.352C108.229 207.589 108.984 209.333 109.023 211.586V221.117C109.023 223.018 109.29 224.535 109.824 225.668V226H104.98ZM99.7656 222.582C100.703 222.582 101.582 222.354 102.402 221.898C103.236 221.443 103.861 220.831 104.277 220.062V216.078H101.719C99.9609 216.078 98.6393 216.384 97.7539 216.996C96.8685 217.608 96.4258 218.474 96.4258 219.594C96.4258 220.505 96.7253 221.234 97.3242 221.781C97.9362 222.315 98.75 222.582 99.7656 222.582ZM15.4907 275.991H9.86572L8.10791 285H4.79004L6.54785 275.991H1.38428V272.915H7.16309L8.65723 265.269H3.0542V262.148H9.27246L11.0742 253.008H14.3921L12.5903 262.148H18.1934L19.9951 253.008H23.313L21.5112 262.148H25.9058V265.269H20.918L19.4238 272.915H24.2578V275.991H18.8086L17.0508 285H13.7329L15.4907 275.991ZM10.481 272.915H16.106L17.6001 265.269H11.9751L10.481 272.915ZM54.7778 253.008V260.083H51.0864L50.7568 256.414H43.6597V281.616L47.2412 282.231V285H35.7495V282.231L39.3311 281.616V256.414H32.2119L31.9043 260.083H28.1909V253.008H54.7778ZM65.4126 253.008V266.104H73.3008C76.7285 266.104 79.3799 266.946 81.2549 268.63C83.1445 270.315 84.0894 272.593 84.0894 275.464C84.0894 278.35 83.1445 280.664 81.2549 282.407C79.3652 284.136 76.7139 285 73.3008 285H57.5024V282.231L61.084 281.616V256.414L57.5024 255.798V253.008H61.084H65.4126ZM84.7925 282.231L88.374 281.616V256.414L84.7925 255.798V253.008H96.2842V255.798L92.7026 256.414V281.616L96.2842 282.231V285H84.7925V282.231ZM65.4126 269.509V281.616H73.3008C75.4688 281.616 77.0874 281.03 78.1567 279.858C79.2261 278.687 79.7607 277.207 79.7607 275.42C79.7607 273.691 79.2261 272.278 78.1567 271.179C77.0874 270.066 75.4688 269.509 73.3008 269.509H65.4126ZM68.9941 253.008V255.798L65.4126 256.414V253.008H68.9941ZM114.06 271.069L107.446 281.946L109.182 282.231V285H99.0308V282.231L102.239 281.77L110.764 268.279L104.919 258.962C104.348 258.098 103.813 257.483 103.315 257.117C102.817 256.736 102.224 256.545 101.536 256.545C101.213 256.545 100.891 256.567 100.569 256.611C100.261 256.655 99.9536 256.707 99.646 256.765L99.0088 253.733C99.4775 253.425 99.9829 253.191 100.525 253.03C101.067 252.854 101.697 252.766 102.415 252.766C103.63 252.766 104.7 253.059 105.623 253.645C106.56 254.231 107.542 255.352 108.567 257.007L114.939 267.422H118.059V256.414L114.478 255.798V253.008H122.366H125.947V255.798L122.366 256.414V267.422H125.75L132.122 257.007C133.132 255.352 134.099 254.231 135.022 253.645C135.945 253.059 137.029 252.766 138.274 252.766C138.977 252.766 139.6 252.854 140.142 253.03C140.684 253.191 141.189 253.425 141.658 253.733L141.021 256.765C140.713 256.707 140.398 256.655 140.076 256.611C139.768 256.567 139.46 256.545 139.153 256.545C138.45 256.545 137.849 256.736 137.351 257.117C136.853 257.483 136.318 258.098 135.747 258.962L129.617 268.477L138.01 281.77L141.218 282.231V285H131.089V282.231L132.803 281.946L126.211 271.069H122.366V281.616L125.947 282.231V285H114.478V282.231L118.059 281.616V271.069H114.06ZM144.207 282.231L147.788 281.616V256.414L144.207 255.798V253.008H175.583V255.798L172.002 256.414V281.616L175.583 282.231V285H164.092V282.231L167.673 281.616V256.414H152.117V281.616L155.698 282.231V285H144.207V282.231ZM193.403 253.008C196.816 253.008 199.468 253.887 201.357 255.645C203.262 257.402 204.214 259.717 204.214 262.588C204.214 265.488 203.262 267.81 201.357 269.553C199.468 271.296 196.816 272.168 193.403 272.168H186.614V281.616L190.195 282.231V285H178.704V282.231L182.285 281.616V256.414L178.704 255.798V253.008H182.285H193.403ZM186.614 268.784H193.403C195.571 268.784 197.19 268.206 198.259 267.048C199.343 265.876 199.885 264.404 199.885 262.632C199.885 260.859 199.343 259.38 198.259 258.193C197.19 257.007 195.571 256.414 193.403 256.414H186.614V268.784ZM235.811 269.246C235.811 273.904 234.47 277.771 231.79 280.847C229.124 283.923 225.667 285.461 221.418 285.461C217.288 285.461 213.933 283.923 211.355 280.847C208.777 277.771 207.488 273.904 207.488 269.246V268.784C207.488 264.141 208.777 260.273 211.355 257.183C213.933 254.092 217.288 252.546 221.418 252.546C225.667 252.546 229.124 254.092 231.79 257.183C234.47 260.273 235.811 264.141 235.811 268.784V269.246ZM231.482 268.74C231.482 265.02 230.588 261.987 228.801 259.644C227.029 257.285 224.568 256.106 221.418 256.106C218.401 256.106 216.042 257.285 214.343 259.644C212.659 262.002 211.816 265.034 211.816 268.74V269.246C211.816 272.996 212.659 276.05 214.343 278.408C216.042 280.752 218.401 281.924 221.418 281.924C224.612 281.924 227.087 280.752 228.845 278.408C230.603 276.064 231.482 273.01 231.482 269.246V268.74ZM239.216 282.231L242.798 281.616V256.414L239.216 255.798V253.008H262.419V260.083H258.706L258.376 256.414H247.126V281.616L250.708 282.231V285H239.216V282.231ZM280.503 253.008C283.916 253.008 286.567 253.887 288.457 255.645C290.361 257.402 291.313 259.717 291.313 262.588C291.313 265.488 290.361 267.81 288.457 269.553C286.567 271.296 283.916 272.168 280.503 272.168H273.713V281.616L277.295 282.231V285H265.803V282.231L269.385 281.616V256.414L265.803 255.798V253.008H269.385H280.503ZM273.713 268.784H280.503C282.671 268.784 284.29 268.206 285.359 267.048C286.443 265.876 286.985 264.404 286.985 262.632C286.985 260.859 286.443 259.38 285.359 258.193C284.29 257.007 282.671 256.414 280.503 256.414H273.713V268.784ZM288.435 282.231L290.808 281.902L301.992 253.008H305.706L316.692 281.902L319.043 282.231V285H309.858V282.231L312.275 281.814L310.166 275.925H297.356L295.181 281.814L297.598 282.231V285H288.435V282.231ZM298.696 272.3H308.848L303.882 258.567H303.75L298.696 272.3ZM353.013 259.38L352.903 259.358L342.554 285H339.675L329.326 259.38L329.216 259.402L329.656 272.344V281.616L333.237 282.231V285H321.746V282.231L325.327 281.616V256.414L321.746 255.798V253.008H325.327H330.864L341.06 279.001H341.191L351.365 253.008H360.505V255.798L356.924 256.414V281.616L360.505 282.231V285H349.014V282.231L352.595 281.616V272.344L353.013 259.38ZM394.893 259.38L394.783 259.358L384.434 285H381.555L371.206 259.38L371.096 259.402L371.536 272.344V281.616L375.117 282.231V285H363.625V282.231L367.207 281.616V256.414L363.625 255.798V253.008H367.207H372.744L382.939 279.001H383.071L393.245 253.008H402.385V255.798L398.804 256.414V281.616L402.385 282.231V285H390.894V282.231L394.475 281.616V272.344L394.893 259.38ZM417.129 253.008V255.798L413.547 256.414V274.849L413.679 274.893L429.06 258.435V256.414L425.479 255.798V253.008H429.06H433.389H436.97V255.798L433.389 256.414V281.616L436.97 282.231V285H425.479V282.231L429.06 281.616V263.774L428.928 263.73L413.547 280.21V281.616L417.129 282.231V285H405.637V282.231L409.219 281.616V256.414L405.637 255.798V253.008H409.219H413.547H417.129ZM464.897 262.83H461.843L461.03 258.303C460.327 257.615 459.463 257.051 458.438 256.611C457.412 256.172 456.189 255.952 454.768 255.952C451.443 255.952 448.887 257.161 447.1 259.578C445.312 261.98 444.419 265.034 444.419 268.74V269.246C444.419 272.952 445.291 276.021 447.034 278.452C448.792 280.869 451.223 282.078 454.329 282.078C455.779 282.078 457.097 281.851 458.284 281.396C459.47 280.942 460.386 280.386 461.03 279.727L461.843 275.2H464.897V280.891C463.975 282.078 462.59 283.14 460.745 284.077C458.899 285 456.76 285.461 454.329 285.461C450.168 285.461 446.755 283.923 444.089 280.847C441.423 277.771 440.09 273.904 440.09 269.246V268.784C440.09 264.097 441.401 260.222 444.023 257.161C446.646 254.084 450.081 252.546 454.329 252.546C456.76 252.546 458.899 253.022 460.745 253.975C462.59 254.912 463.975 255.967 464.897 257.139V262.83ZM494.319 253.008V260.083H490.627L490.298 256.414H483.201V281.616L486.782 282.231V285H475.291V282.231L478.872 281.616V256.414H471.753L471.445 260.083H467.732V253.008H494.319ZM524.575 269.246C524.575 273.904 523.235 277.771 520.554 280.847C517.888 283.923 514.431 285.461 510.183 285.461C506.052 285.461 502.698 283.923 500.12 280.847C497.542 277.771 496.252 273.904 496.252 269.246V268.784C496.252 264.141 497.542 260.273 500.12 257.183C502.698 254.092 506.052 252.546 510.183 252.546C514.431 252.546 517.888 254.092 520.554 257.183C523.235 260.273 524.575 264.141 524.575 268.784V269.246ZM520.247 268.74C520.247 265.02 519.353 261.987 517.566 259.644C515.793 257.285 513.333 256.106 510.183 256.106C507.166 256.106 504.807 257.285 503.108 259.644C501.423 262.002 500.581 265.034 500.581 268.74V269.246C500.581 272.996 501.423 276.05 503.108 278.408C504.807 280.752 507.166 281.924 510.183 281.924C513.376 281.924 515.852 280.752 517.61 278.408C519.368 276.064 520.247 273.01 520.247 269.246V268.74ZM541.868 253.008C545.208 253.008 547.815 253.733 549.69 255.183C551.58 256.619 552.524 258.779 552.524 261.665C552.524 263.086 552.07 264.36 551.162 265.488C550.269 266.602 549.082 267.429 547.603 267.971C549.521 268.381 551.038 269.326 552.151 270.806C553.264 272.285 553.821 274.006 553.821 275.969C553.821 278.899 552.869 281.14 550.964 282.693C549.06 284.231 546.482 285 543.23 285H527.849V282.231L531.431 281.616V256.414L527.849 255.798V253.008H531.431H541.868ZM535.759 269.993V281.616H543.23C545.208 281.616 546.738 281.133 547.822 280.166C548.921 279.185 549.47 277.8 549.47 276.013C549.47 274.138 549.009 272.666 548.086 271.597C547.178 270.527 545.779 269.993 543.889 269.993H535.759ZM535.759 266.609H542.988C544.541 266.565 545.793 266.104 546.746 265.225C547.712 264.346 548.196 263.13 548.196 261.577C548.196 259.849 547.654 258.56 546.57 257.71C545.486 256.846 543.918 256.414 541.868 256.414H535.759V266.609Z" fill="#1F3041"/>
</svg>
