<svg width="1174" height="808" viewBox="0 0 1174 808" fill="none" xmlns="http://www.w3.org/2000/svg">
<path fill-rule="evenodd" clip-rule="evenodd" d="M750.9 487.639C761.958 498.213 783.092 519.741 763.819 523.437C709.568 533.84 669.07 524.434 636.287 510.114C625.032 505.198 616.248 500.676 608.19 496.528C580.754 482.403 561.732 472.61 482.252 466.345C419.611 461.407 380.945 465.848 347.837 469.65C326.598 472.089 307.646 474.266 286.121 473.535C230.054 471.632 187.287 458.828 152.438 408.827C104.041 339.387 99.4431 327.952 72.1986 260.194C64.306 240.565 54.513 216.209 41.2041 184.348C-1.86958 81.2284 -13.5702 32.4414 -18.3006 12.7175C-19.2916 8.58538 -19.9767 5.72882 -20.5803 3.9155L-56.1403 60.1704C-51.4433 69.0998 -47.635 73.8938 -43.1969 79.4805C-32.5007 92.9452 -18.1463 111.015 21.1246 202.679C76.6898 332.377 121.973 395.1 130.963 406.583C131.985 407.889 133.249 409.781 134.814 412.124C147.014 430.392 177.491 476.026 254.013 484.02C263.808 485.043 279.834 482.724 300.727 479.7C339.848 474.038 396.034 465.906 460.33 472.622C478.917 474.564 491.897 475.569 502.029 476.353C526.297 478.232 534.224 478.846 563.72 488.036C578.379 492.603 587.022 496.638 596.447 501.039C611.575 508.103 628.718 516.107 675.985 528.759C700.472 535.314 759.392 528.519 765.368 525.576C777.511 519.595 771.823 510.434 767.985 504.761C766.206 502.131 762.901 498.299 760.105 495.37C760.027 495.289 759.949 495.208 759.87 495.128L752.106 487.123C756.338 487.158 760.638 487.057 764.984 486.834C796.124 485.236 829.672 477.396 857.704 468.6C857.582 468.582 857.459 468.564 857.337 468.546C839.387 474.053 815.962 479.425 782.133 483.832C766.941 485.812 756.855 486.749 750.389 487.051L750.336 487.101C750.525 487.285 750.713 487.464 750.9 487.639ZM910.794 448.07C910.786 448.094 910.778 448.119 910.77 448.144C910.937 448.061 911.103 447.979 911.267 447.897C911.109 447.954 910.952 448.012 910.794 448.07Z" fill="#F04E4B"/>
<path d="M919.112 507.282C992.321 511.72 1128.76 459.022 1128.76 459.022C1071.38 478.394 987.67 509.591 920.685 502.594C801.983 490.194 758.234 479.359 723.067 480.957C687.9 482.556 663.444 487.926 648.839 500.222C634.234 512.518 631.709 525.273 632.878 542.749C634.047 560.224 644.68 578.21 644.68 578.21C644.68 578.21 591.535 545.084 557.004 526.875C522.474 508.665 513.521 504.363 473.164 487.587C432.806 470.81 348.579 439.506 233.651 432.92C118.723 426.333 119.705 426.901 21.7794 439.71C-76.1458 452.52 -105.368 477.763 -105.368 477.763L-105.998 512.314L-84.5587 505.951C-84.5587 505.951 -60.7758 479.864 23.338 463.011C107.452 446.159 136.767 443.038 223.941 448.709C311.115 454.379 364.541 461.593 430.522 487.275C496.504 512.958 498.987 512.748 538.292 532.868C577.597 552.988 635.466 588.465 635.466 588.465L681.108 614.56C600.08 516.595 659.328 497.364 699.49 490.356C745.405 482.345 830.132 501.888 919.112 507.282Z" fill="#4D4D4D"/>
<path d="M176.06 368C175.86 368 175.69 367.93 175.55 367.79C175.41 367.65 175.34 367.48 175.34 367.28L175.34 347.75C175.34 347.53 175.4 347.35 175.52 347.21C175.66 347.07 175.84 347 176.06 347L189.8 347C190.02 347 190.19 347.07 190.31 347.21C190.45 347.35 190.52 347.53 190.52 347.75L190.52 349.85C190.52 350.05 190.45 350.22 190.31 350.36C190.19 350.5 190.02 350.57 189.8 350.57L179.51 350.57L179.51 355.37L184.58 355.37C186.84 355.37 188.61 355.93 189.89 357.05C191.17 358.17 191.81 359.69 191.81 361.61C191.81 362.75 191.53 363.81 190.97 364.79C190.43 365.75 189.61 366.53 188.51 367.13C187.43 367.71 186.12 368 184.58 368L176.06 368ZM184.16 364.82C185.18 364.82 185.99 364.51 186.59 363.89C187.21 363.25 187.52 362.47 187.52 361.55C187.52 360.63 187.23 359.89 186.65 359.33C186.07 358.77 185.24 358.49 184.16 358.49L179.51 358.49L179.51 364.82L184.16 364.82ZM195.513 368C195.293 368 195.113 367.93 194.973 367.79C194.853 367.65 194.793 367.47 194.793 367.25L194.793 347.75C194.793 347.53 194.863 347.35 195.003 347.21C195.143 347.07 195.323 347 195.543 347L198.243 347C198.463 347 198.633 347.07 198.753 347.21C198.893 347.35 198.963 347.53 198.963 347.75L198.963 361.52L208.833 347.48C209.053 347.16 209.343 347 209.703 347L212.193 347C212.413 347 212.583 347.07 212.703 347.21C212.843 347.35 212.913 347.53 212.913 347.75L212.913 367.28C212.913 367.48 212.843 367.65 212.703 367.79C212.583 367.93 212.413 368 212.193 368L209.493 368C209.273 368 209.093 367.94 208.953 367.82C208.813 367.68 208.743 367.5 208.743 367.28L208.743 353.78L198.903 367.52C198.783 367.68 198.663 367.8 198.543 367.88C198.423 367.96 198.253 368 198.033 368L195.513 368ZM222.926 368C222.726 368 222.556 367.93 222.416 367.79C222.276 367.65 222.206 367.48 222.206 367.28L222.206 350.69L216.656 350.69C216.456 350.69 216.286 350.62 216.146 350.48C216.006 350.34 215.936 350.17 215.936 349.97L215.936 347.75C215.936 347.53 215.996 347.35 216.116 347.21C216.256 347.07 216.436 347 216.656 347L231.956 347C232.176 347 232.356 347.07 232.496 347.21C232.636 347.35 232.706 347.53 232.706 347.75L232.706 349.97C232.706 350.17 232.636 350.34 232.496 350.48C232.356 350.62 232.176 350.69 231.956 350.69L226.436 350.69L226.436 367.28C226.436 367.48 226.366 367.65 226.226 367.79C226.086 367.93 225.906 368 225.686 368L222.926 368ZM236.47 368C236.27 368 236.1 367.93 235.96 367.79C235.82 367.65 235.75 367.48 235.75 367.28L235.75 347.75C235.75 347.53 235.81 347.35 235.93 347.21C236.07 347.07 236.25 347 236.47 347L245.17 347C247.51 347 249.25 347.52 250.39 348.56C251.55 349.58 252.13 350.98 252.13 352.76C252.13 353.8 251.87 354.69 251.35 355.43C250.85 356.15 250.26 356.67 249.58 356.99C250.42 357.37 251.12 357.99 251.68 358.85C252.26 359.71 252.55 360.69 252.55 361.79C252.55 363.65 251.92 365.15 250.66 366.29C249.42 367.43 247.67 368 245.41 368L236.47 368ZM244.63 355.61C245.67 355.61 246.46 355.36 247 354.86C247.54 354.36 247.81 353.69 247.81 352.85C247.81 351.99 247.54 351.33 247 350.87C246.46 350.39 245.67 350.15 244.63 350.15L239.92 350.15L239.92 355.61L244.63 355.61ZM244.93 364.82C245.97 364.82 246.78 364.54 247.36 363.98C247.94 363.4 248.23 362.67 248.23 361.79C248.23 360.89 247.94 360.16 247.36 359.6C246.78 359.02 245.97 358.73 244.93 358.73L239.92 358.73L239.92 364.82L244.93 364.82ZM255.027 368C254.867 368 254.717 367.94 254.577 367.82C254.457 367.7 254.397 367.55 254.397 367.37L254.457 367.1L261.687 347.75C261.827 347.25 262.177 347 262.737 347L266.007 347C266.527 347 266.877 347.25 267.057 347.75L274.287 367.1C274.307 367.16 274.317 367.25 274.317 367.37C274.317 367.55 274.257 367.7 274.137 367.82C274.017 367.94 273.877 368 273.717 368L271.107 368C270.847 368 270.647 367.94 270.507 367.82C270.367 367.7 270.277 367.57 270.237 367.43L268.827 363.77L259.917 363.77L258.507 367.43C258.347 367.81 258.057 368 257.637 368L255.027 368ZM267.777 360.32L264.357 351.05L260.967 360.32L267.777 360.32ZM284.208 406C283.975 406 283.777 405.93 283.613 405.79C283.473 405.627 283.403 405.428 283.403 405.195L283.403 382.34C283.403 382.083 283.473 381.885 283.613 381.745C283.777 381.582 283.975 381.5 284.208 381.5L301.463 381.5C301.72 381.5 301.918 381.582 302.058 381.745C302.222 381.885 302.303 382.083 302.303 382.34L302.303 405.195C302.303 405.428 302.222 405.627 302.058 405.79C301.895 405.93 301.697 406 301.463 406L299.678 406C299.445 406 299.247 405.93 299.083 405.79C298.943 405.627 298.873 405.428 298.873 405.195L298.873 384.65L286.833 384.65L286.833 405.195C286.833 405.428 286.752 405.627 286.588 405.79C286.425 405.93 286.227 406 285.993 406L284.208 406ZM309.194 406C308.96 406 308.762 405.93 308.599 405.79C308.459 405.627 308.389 405.428 308.389 405.195L308.389 382.34C308.389 382.083 308.459 381.885 308.599 381.745C308.762 381.582 308.96 381.5 309.194 381.5L318.084 381.5C320.72 381.5 322.797 382.142 324.314 383.425C325.83 384.708 326.589 386.563 326.589 388.99C326.589 391.417 325.83 393.272 324.314 394.555C322.82 395.815 320.744 396.445 318.084 396.445L311.889 396.445L311.889 405.195C311.889 405.428 311.807 405.627 311.644 405.79C311.48 405.93 311.282 406 311.049 406L309.194 406ZM317.909 393.505C319.612 393.505 320.895 393.12 321.759 392.35C322.645 391.58 323.089 390.46 323.089 388.99C323.089 387.52 322.657 386.4 321.794 385.63C320.93 384.837 319.635 384.44 317.909 384.44L311.854 384.44L311.854 393.505L317.909 393.505ZM339.665 406.35C336.608 406.35 334.24 405.557 332.56 403.97C330.903 402.36 330.028 399.945 329.935 396.725C329.911 396.025 329.9 395.033 329.9 393.75C329.9 392.467 329.911 391.487 329.935 390.81C330.028 387.66 330.938 385.268 332.665 383.635C334.391 381.978 336.725 381.15 339.665 381.15C342.581 381.15 344.903 381.978 346.63 383.635C348.356 385.268 349.266 387.66 349.36 390.81C349.406 392.163 349.43 393.143 349.43 393.75C349.43 394.333 349.406 395.325 349.36 396.725C349.266 399.945 348.38 402.36 346.7 403.97C345.043 405.557 342.698 406.35 339.665 406.35ZM339.665 403.375C341.508 403.375 342.978 402.815 344.075 401.695C345.171 400.575 345.766 398.86 345.86 396.55C345.906 395.15 345.93 394.217 345.93 393.75C345.93 393.237 345.906 392.303 345.86 390.95C345.766 388.64 345.16 386.925 344.04 385.805C342.943 384.685 341.485 384.125 339.665 384.125C337.821 384.125 336.34 384.685 335.22 385.805C334.123 386.925 333.528 388.64 333.435 390.95C333.411 391.627 333.4 392.56 333.4 393.75C333.4 394.917 333.411 395.85 333.435 396.55C333.528 398.86 334.123 400.575 335.22 401.695C336.34 402.815 337.821 403.375 339.665 403.375ZM355.336 406C355.103 406 354.905 405.93 354.741 405.79C354.601 405.627 354.531 405.428 354.531 405.195L354.531 382.34C354.531 382.083 354.601 381.885 354.741 381.745C354.905 381.582 355.103 381.5 355.336 381.5L368.811 381.5C369.068 381.5 369.266 381.582 369.406 381.745C369.57 381.885 369.651 382.083 369.651 382.34L369.651 383.74C369.651 383.973 369.57 384.172 369.406 384.335C369.266 384.475 369.068 384.545 368.811 384.545L357.961 384.545L357.961 405.195C357.961 405.428 357.88 405.627 357.716 405.79C357.553 405.93 357.355 406 357.121 406L355.336 406ZM373.657 406C373.423 406 373.225 405.93 373.062 405.79C372.922 405.627 372.852 405.428 372.852 405.195L372.852 382.34C372.852 382.083 372.922 381.885 373.062 381.745C373.225 381.582 373.423 381.5 373.657 381.5L382.547 381.5C385.183 381.5 387.26 382.142 388.777 383.425C390.293 384.708 391.052 386.563 391.052 388.99C391.052 391.417 390.293 393.272 388.777 394.555C387.283 395.815 385.207 396.445 382.547 396.445L376.352 396.445L376.352 405.195C376.352 405.428 376.27 405.627 376.107 405.79C375.943 405.93 375.745 406 375.512 406L373.657 406ZM382.372 393.505C384.075 393.505 385.358 393.12 386.222 392.35C387.108 391.58 387.552 390.46 387.552 388.99C387.552 387.52 387.12 386.4 386.257 385.63C385.393 384.837 384.098 384.44 382.372 384.44L376.317 384.44L376.317 393.505L382.372 393.505ZM393.663 406C393.476 406 393.313 405.93 393.173 405.79C393.033 405.65 392.963 405.487 392.963 405.3C392.963 405.113 392.974 404.985 392.998 404.915L401.678 382.27C401.864 381.757 402.238 381.5 402.798 381.5L405.178 381.5C405.738 381.5 406.111 381.757 406.298 382.27L414.943 404.915L415.013 405.3C415.013 405.487 414.943 405.65 414.803 405.79C414.663 405.93 414.499 406 414.313 406L412.528 406C412.271 406 412.073 405.942 411.933 405.825C411.793 405.685 411.699 405.545 411.653 405.405L409.728 400.435L398.248 400.435L396.323 405.405C396.276 405.545 396.171 405.685 396.008 405.825C395.868 405.942 395.681 406 395.448 406L393.663 406ZM408.713 397.425L403.988 385L399.263 397.425L408.713 397.425ZM419.56 406C419.327 406 419.128 405.93 418.965 405.79C418.825 405.627 418.755 405.428 418.755 405.195L418.755 382.34C418.755 382.083 418.825 381.885 418.965 381.745C419.128 381.582 419.327 381.5 419.56 381.5L421.31 381.5C421.683 381.5 421.987 381.687 422.22 382.06L429.605 396.2L437.06 382.06C437.107 381.92 437.2 381.792 437.34 381.675C437.503 381.558 437.702 381.5 437.935 381.5L439.65 381.5C439.907 381.5 440.105 381.582 440.245 381.745C440.408 381.885 440.49 382.083 440.49 382.34L440.49 405.195C440.49 405.428 440.408 405.627 440.245 405.79C440.082 405.93 439.883 406 439.65 406L437.935 406C437.702 406 437.503 405.93 437.34 405.79C437.2 405.627 437.13 405.428 437.13 405.195L437.13 387.975L431.285 399.385C431.052 399.875 430.678 400.12 430.165 400.12L429.08 400.12C428.567 400.12 428.193 399.875 427.96 399.385L422.08 387.975L422.08 405.195C422.08 405.428 421.998 405.627 421.835 405.79C421.695 405.93 421.508 406 421.275 406L419.56 406ZM447.348 406C447.115 406 446.916 405.93 446.753 405.79C446.613 405.627 446.543 405.428 446.543 405.195L446.543 382.34C446.543 382.083 446.613 381.885 446.753 381.745C446.916 381.582 447.115 381.5 447.348 381.5L449.098 381.5C449.471 381.5 449.775 381.687 450.008 382.06L457.393 396.2L464.848 382.06C464.895 381.92 464.988 381.792 465.128 381.675C465.291 381.558 465.49 381.5 465.723 381.5L467.438 381.5C467.695 381.5 467.893 381.582 468.033 381.745C468.196 381.885 468.278 382.083 468.278 382.34L468.278 405.195C468.278 405.428 468.196 405.627 468.033 405.79C467.87 405.93 467.671 406 467.438 406L465.723 406C465.49 406 465.291 405.93 465.128 405.79C464.988 405.627 464.918 405.428 464.918 405.195L464.918 387.975L459.073 399.385C458.84 399.875 458.466 400.12 457.953 400.12L456.868 400.12C456.355 400.12 455.981 399.875 455.748 399.385L449.868 387.975L449.868 405.195C449.868 405.428 449.786 405.627 449.623 405.79C449.483 405.93 449.296 406 449.063 406L447.348 406ZM475.136 406C474.903 406 474.704 405.93 474.541 405.79C474.401 405.627 474.331 405.417 474.331 405.16L474.331 382.34C474.331 382.083 474.401 381.885 474.541 381.745C474.704 381.582 474.903 381.5 475.136 381.5L476.956 381.5C477.189 381.5 477.376 381.582 477.516 381.745C477.679 381.908 477.761 382.107 477.761 382.34L477.761 400.435L490.816 381.99C491.003 381.663 491.294 381.5 491.691 381.5L493.406 381.5C493.639 381.5 493.826 381.582 493.966 381.745C494.129 381.885 494.211 382.083 494.211 382.34L494.211 405.195C494.211 405.428 494.129 405.627 493.966 405.79C493.826 405.93 493.639 406 493.406 406L491.621 406C491.388 406 491.189 405.93 491.026 405.79C490.863 405.627 490.781 405.428 490.781 405.195L490.781 387.24L477.761 405.51C477.574 405.837 477.283 406 476.886 406L475.136 406ZM509.128 406.35C506.001 406.35 503.621 405.51 501.988 403.83C500.378 402.15 499.514 399.828 499.398 396.865C499.374 396.235 499.363 395.208 499.363 393.785C499.363 392.338 499.374 391.288 499.398 390.635C499.514 387.695 500.389 385.385 502.023 383.705C503.656 382.002 506.024 381.15 509.128 381.15C511.204 381.15 512.966 381.523 514.413 382.27C515.859 382.993 516.956 383.95 517.703 385.14C518.449 386.33 518.858 387.602 518.928 388.955L518.928 389.025C518.928 389.212 518.846 389.375 518.683 389.515C518.543 389.632 518.379 389.69 518.193 389.69L516.268 389.69C515.801 389.69 515.509 389.422 515.393 388.885C514.996 387.135 514.284 385.91 513.258 385.21C512.231 384.487 510.854 384.125 509.128 384.125C505.114 384.125 503.038 386.353 502.898 390.81C502.874 391.44 502.863 392.408 502.863 393.715C502.863 395.022 502.874 396.013 502.898 396.69C503.038 401.147 505.114 403.375 509.128 403.375C510.854 403.375 512.231 403.025 513.258 402.325C514.308 401.602 515.019 400.365 515.393 398.615C515.463 398.312 515.568 398.102 515.708 397.985C515.848 397.868 516.034 397.81 516.268 397.81L518.193 397.81C518.403 397.81 518.578 397.88 518.718 398.02C518.881 398.137 518.951 398.3 518.928 398.51C518.858 399.887 518.449 401.17 517.703 402.36C516.956 403.55 515.859 404.518 514.413 405.265C512.966 405.988 511.204 406.35 509.128 406.35ZM529.778 406C529.545 406 529.347 405.93 529.183 405.79C529.043 405.627 528.973 405.428 528.973 405.195L528.973 384.615L522.253 384.615C522.02 384.615 521.822 384.545 521.658 384.405C521.518 384.242 521.448 384.043 521.448 383.81L521.448 382.34C521.448 382.107 521.518 381.908 521.658 381.745C521.822 381.582 522.02 381.5 522.253 381.5L539.123 381.5C539.38 381.5 539.578 381.582 539.718 381.745C539.882 381.885 539.963 382.083 539.963 382.34L539.963 383.81C539.963 384.043 539.882 384.242 539.718 384.405C539.555 384.545 539.357 384.615 539.123 384.615L532.438 384.615L532.438 405.195C532.438 405.428 532.357 405.627 532.193 405.79C532.03 405.93 531.832 406 531.598 406L529.778 406ZM552.707 406.35C549.65 406.35 547.282 405.557 545.602 403.97C543.945 402.36 543.07 399.945 542.977 396.725C542.953 396.025 542.942 395.033 542.942 393.75C542.942 392.467 542.953 391.487 542.977 390.81C543.07 387.66 543.98 385.268 545.707 383.635C547.433 381.978 549.767 381.15 552.707 381.15C555.623 381.15 557.945 381.978 559.672 383.635C561.398 385.268 562.308 387.66 562.402 390.81C562.448 392.163 562.472 393.143 562.472 393.75C562.472 394.333 562.448 395.325 562.402 396.725C562.308 399.945 561.422 402.36 559.742 403.97C558.085 405.557 555.74 406.35 552.707 406.35ZM552.707 403.375C554.55 403.375 556.02 402.815 557.117 401.695C558.213 400.575 558.808 398.86 558.902 396.55C558.948 395.15 558.972 394.217 558.972 393.75C558.972 393.237 558.948 392.303 558.902 390.95C558.808 388.64 558.202 386.925 557.082 385.805C555.985 384.685 554.527 384.125 552.707 384.125C550.863 384.125 549.382 384.685 548.262 385.805C547.165 386.925 546.57 388.64 546.477 390.95C546.453 391.627 546.442 392.56 546.442 393.75C546.442 394.917 546.453 395.85 546.477 396.55C546.57 398.86 547.165 400.575 548.262 401.695C549.382 402.815 550.863 403.375 552.707 403.375ZM568.378 406C568.145 406 567.947 405.93 567.783 405.79C567.643 405.627 567.573 405.428 567.573 405.195L567.573 382.34C567.573 382.083 567.643 381.885 567.783 381.745C567.947 381.582 568.145 381.5 568.378 381.5L577.968 381.5C580.465 381.5 582.343 382.095 583.603 383.285C584.863 384.475 585.493 386.038 585.493 387.975C585.493 389.282 585.19 390.367 584.583 391.23C584 392.093 583.3 392.723 582.483 393.12C583.463 393.61 584.292 394.368 584.968 395.395C585.645 396.422 585.983 397.6 585.983 398.93C585.983 400.237 585.68 401.427 585.073 402.5C584.49 403.573 583.615 404.425 582.448 405.055C581.282 405.685 579.882 406 578.248 406L568.378 406ZM577.443 391.86C578.913 391.86 580.033 391.522 580.803 390.845C581.597 390.168 581.993 389.223 581.993 388.01C581.993 386.82 581.608 385.91 580.838 385.28C580.068 384.65 578.937 384.335 577.443 384.335L571.003 384.335L571.003 391.86L577.443 391.86ZM577.793 403.165C579.263 403.165 580.407 402.768 581.223 401.975C582.063 401.182 582.483 400.167 582.483 398.93C582.483 397.647 582.063 396.62 581.223 395.85C580.407 395.057 579.263 394.66 577.793 394.66L571.003 394.66L571.003 403.165L577.793 403.165Z" fill="#1F3041"/>
<path d="M179.055 404.635C178.845 404.635 178.67 404.565 178.53 404.425C178.39 404.285 178.332 404.11 178.355 403.9L178.985 399.665L175.52 399.665C175.287 399.665 175.1 399.595 174.96 399.455C174.82 399.315 174.75 399.128 174.75 398.895L174.75 397.705C174.75 397.472 174.82 397.285 174.96 397.145C175.1 397.005 175.287 396.935 175.52 396.935L179.405 396.935L180.315 390.775L176.43 390.775C176.197 390.775 176.01 390.705 175.87 390.565C175.73 390.425 175.66 390.238 175.66 390.005L175.66 388.815C175.66 388.582 175.73 388.395 175.87 388.255C176.01 388.115 176.197 388.045 176.43 388.045L180.735 388.045L181.365 383.81C181.412 383.6 181.493 383.425 181.61 383.285C181.75 383.145 181.925 383.075 182.135 383.075L183.43 383.075C183.64 383.075 183.815 383.145 183.955 383.285C184.095 383.425 184.153 383.6 184.13 383.81L183.5 388.045L188.68 388.045L189.31 383.81C189.357 383.6 189.438 383.425 189.555 383.285C189.695 383.145 189.87 383.075 190.08 383.075L191.375 383.075C191.585 383.075 191.76 383.145 191.9 383.285C192.04 383.425 192.098 383.6 192.075 383.81L191.445 388.045L194.84 388.045C195.073 388.045 195.26 388.115 195.4 388.255C195.563 388.395 195.645 388.582 195.645 388.815L195.645 390.005C195.645 390.238 195.563 390.425 195.4 390.565C195.26 390.705 195.073 390.775 194.84 390.775L191.06 390.775L190.15 396.935L193.93 396.935C194.163 396.935 194.35 397.005 194.49 397.145C194.653 397.285 194.735 397.472 194.735 397.705L194.735 398.895C194.735 399.128 194.653 399.315 194.49 399.455C194.35 399.595 194.163 399.665 193.93 399.665L189.73 399.665L189.1 403.9C189.053 404.11 188.96 404.285 188.82 404.425C188.68 404.565 188.505 404.635 188.295 404.635L187 404.635C186.79 404.635 186.615 404.565 186.475 404.425C186.335 404.285 186.277 404.11 186.3 403.9L186.93 399.665L181.785 399.665L181.155 403.9C181.108 404.11 181.015 404.285 180.875 404.425C180.735 404.565 180.56 404.635 180.35 404.635L179.055 404.635ZM187.35 396.935L188.26 390.775L183.115 390.775L182.205 396.935L187.35 396.935ZM208.709 406L205.559 406L205.559 383.775L197.754 383.775L197.754 381.01L216.479 381.01L216.479 383.775L208.709 383.775L208.709 406ZM220.703 406C220.469 406 220.271 405.93 220.108 405.79C219.968 405.627 219.898 405.428 219.898 405.195L219.898 382.305C219.898 382.072 219.968 381.885 220.108 381.745C220.271 381.582 220.469 381.5 220.703 381.5L222.488 381.5C222.721 381.5 222.919 381.582 223.083 381.745C223.246 381.885 223.328 382.072 223.328 382.305L223.328 390.81L227.808 390.81C230.374 390.81 232.346 391.452 233.723 392.735C235.099 393.995 235.788 395.85 235.788 398.3C235.788 399.677 235.484 400.948 234.878 402.115C234.294 403.282 233.396 404.227 232.183 404.95C230.993 405.65 229.534 406 227.808 406L220.703 406ZM239.953 406C239.719 406 239.521 405.93 239.358 405.79C239.218 405.627 239.148 405.428 239.148 405.195L239.148 382.305C239.148 382.072 239.218 381.885 239.358 381.745C239.521 381.582 239.719 381.5 239.953 381.5L241.808 381.5C242.041 381.5 242.228 381.582 242.368 381.745C242.531 381.885 242.613 382.072 242.613 382.305L242.613 405.195C242.613 405.428 242.531 405.627 242.368 405.79C242.228 405.93 242.041 406 241.808 406L239.953 406ZM227.528 403.06C229.021 403.06 230.188 402.628 231.028 401.765C231.868 400.878 232.288 399.7 232.288 398.23C232.288 395.22 230.701 393.715 227.528 393.715L223.328 393.715L223.328 403.06L227.528 403.06ZM278.916 404.775C278.963 404.845 278.986 404.973 278.986 405.16C278.986 405.393 278.904 405.592 278.741 405.755C278.601 405.918 278.414 406 278.181 406L276.221 406C275.801 406 275.486 405.825 275.276 405.475L268.556 395.15L264.671 395.15L264.671 405.23C264.671 405.463 264.589 405.65 264.426 405.79C264.286 405.93 264.099 406 263.866 406L262.116 406C261.883 406 261.684 405.93 261.521 405.79C261.381 405.627 261.311 405.428 261.311 405.195L261.311 395.15L257.391 395.15L250.706 405.475C250.589 405.638 250.461 405.767 250.321 405.86C250.204 405.953 250.029 406 249.796 406L247.801 406C247.568 406 247.369 405.918 247.206 405.755C247.066 405.592 246.996 405.393 246.996 405.16C246.996 404.997 247.031 404.868 247.101 404.775L254.486 393.365L247.766 382.655C247.649 382.468 247.591 382.317 247.591 382.2C247.591 381.733 247.836 381.5 248.326 381.5L250.181 381.5C250.718 381.5 251.114 381.687 251.371 382.06L257.566 392.035L261.311 392L261.311 382.305C261.311 382.072 261.381 381.885 261.521 381.745C261.684 381.582 261.883 381.5 262.116 381.5L263.866 381.5C264.099 381.5 264.286 381.582 264.426 381.745C264.589 381.885 264.671 382.072 264.671 382.305L264.671 392L268.381 392.035L274.576 382.06C274.833 381.687 275.229 381.5 275.766 381.5L277.691 381.5C277.924 381.5 278.099 381.57 278.216 381.71C278.333 381.827 278.391 381.99 278.391 382.2C278.391 382.27 278.344 382.422 278.251 382.655L271.496 393.365L278.916 404.775Z" fill="#F04E4B"/>
<g opacity="0.7">
<path d="M389.851 197.074C387.902 196.8 385.079 197.298 383.31 198.245C381.716 199.108 379.816 200.977 378.611 202.853C378.352 203.258 377.507 204.709 376.733 206.064C375.404 208.431 375.287 208.678 374.095 211.954C373.417 213.829 371.969 217.542 370.9 220.218C369.586 223.49 368.894 225.36 368.785 225.966C368.622 226.814 368.587 226.861 367.735 227.766C366.149 229.439 365.964 229.812 362.841 237.409C359.882 244.608 359.619 245.399 359.817 246.426C359.921 246.964 360.186 247.073 362.699 247.595C363.789 247.81 364.753 248.067 364.85 248.169C365.201 248.484 365.038 248.804 364.411 249.011C363.933 249.156 363.831 249.253 363.896 249.435C363.966 249.603 364.178 249.691 364.707 249.799C365.451 249.95 365.792 250.214 365.661 250.532C365.546 250.811 364.947 250.874 364.054 250.709C361.578 250.249 359.263 251.544 357.803 254.23C355.451 258.517 355.537 266.642 357.954 269.17C358.636 269.884 359.988 270.44 360.844 270.358C361.547 270.306 363.923 269.314 365.109 268.577C365.527 268.315 366.31 267.692 366.852 267.202C369.1 265.166 372.611 258.999 372.532 257.231C372.519 256.885 372.42 256.41 372.313 256.18C372.031 255.584 370.987 254.504 370.254 254.063C369.5 253.598 369.24 253.135 369.594 252.878C369.924 252.641 370.452 252.827 371.297 253.485C372.389 254.336 372.67 254.405 373.539 254.065C374.543 253.657 375.308 252.964 376.46 251.407C378.482 248.674 379.807 246.243 380.402 244.116C380.619 243.399 381.222 241.555 381.759 240.024C382.295 238.494 382.807 236.984 382.892 236.662C383.16 235.672 383.016 235.458 381.39 234.511C380.22 233.813 379.245 233.396 376.041 232.141C372.27 230.684 372.124 230.624 371.976 230.269C371.632 229.446 372.256 229.02 373.602 229.14C374.248 229.188 374.552 229.127 374.888 228.878C375.59 228.376 376.072 228.295 377.9 228.411C379.547 228.515 379.632 228.534 381.233 229.239C383.862 230.382 385.038 230.726 385.679 230.524C386.32 230.322 386.358 230.23 387.231 226.9C387.714 225.084 387.864 224.681 390.148 219.653C393.103 213.103 395.019 208.482 395.369 206.952C395.757 205.329 395.942 203.747 395.844 202.854C395.679 201.407 394.739 199.812 393.35 198.667C392.589 198.029 390.76 197.2 389.851 197.074Z" fill="#BBC1C6"/>
<path d="M348.356 182.652C347.035 182.435 345.596 182.618 344.193 183.204C341.841 184.174 341.018 185.122 339.941 188.043C338.657 191.544 337.646 196.568 337.036 202.501C336.887 203.881 336.729 205.32 336.678 205.671C336.541 206.684 336.805 207.133 337.8 207.542C338.264 207.733 339.122 207.946 339.712 208.018C340.302 208.09 340.831 208.199 340.894 208.271C341.08 208.534 340.76 208.898 339.804 209.528C338.725 210.231 338.153 210.756 337.967 211.206C337.883 211.373 337.339 211.754 336.67 212.099C335.066 212.912 334.604 213.357 334.129 214.511C333.535 215.956 333.241 217.539 332.919 221.188C332.747 223.039 332.396 226.382 332.13 228.613C331.441 234.436 331.387 235.096 331.459 236.164C331.616 238.119 331.978 238.748 333.117 239.03C333.712 239.166 333.746 239.196 333.626 239.488C333.561 239.647 333.002 240.176 332.388 240.652C330.795 241.888 330.609 242.153 330.007 243.92C329.407 245.719 329.078 247.196 329.071 248.231C329.075 248.636 329.033 249.455 328.974 250.051C328.862 251.229 329.17 255.494 329.438 256.689C330.042 259.293 334.07 260.917 337.099 259.807C339.239 259.013 341.809 255.699 343.127 252.041C344.095 249.385 344.84 244.934 344.583 243.372C344.384 242.158 343.39 241.486 341.639 241.371C340.825 241.315 339.93 241.382 335.965 241.828C334.971 241.947 334.722 241.875 334.685 241.473C334.62 240.841 336.278 239.973 338.236 239.585C342.652 238.719 343.131 238.683 344.601 239.179C345.57 239.5 345.777 239.523 345.899 239.341C346.101 239.036 345.959 238.668 345.459 238.261C345.063 237.943 344.835 237.896 343.143 237.789C342.116 237.724 340.913 237.709 340.465 237.742C336.656 238.036 336.077 237.597 338.723 236.438C339.819 235.958 340.105 235.905 340.87 236.003C343.407 236.317 344.767 236.365 345.285 236.159C345.777 235.943 345.831 235.887 345.964 235.261C346.053 234.894 346.694 233.22 347.407 231.561C349.166 227.433 350.014 224.465 350.422 221.022C350.926 216.781 350.269 214.76 347.974 213.63C346.846 213.058 345.981 213.013 341.727 213.294C338.811 213.49 338.257 213.48 338.145 213.263C337.922 212.862 338.089 212.682 338.986 212.385C340.215 211.96 341.836 211.898 343.851 212.199C345.704 212.48 347.032 212.53 347.113 212.331C347.141 212.265 347.116 212.1 347.042 211.977C346.878 211.661 344.236 210.885 343.093 210.802C342.364 210.766 342.244 210.717 342.143 210.474C341.958 210.057 342.348 209.861 343.525 209.787C345.246 209.673 346.094 209.835 347.8 210.661C348.993 211.228 349.348 211.344 349.522 211.26C349.645 211.187 350.12 210.56 350.589 209.87C351.971 207.865 353.298 204.335 354.242 200.229C355.323 195.528 355.389 190.162 354.402 187.664C353.377 185.104 350.966 183.09 348.356 182.652Z" fill="#BBC1C6"/>
<path d="M422.341 219.681C421.482 219.545 418.407 219.862 417.366 220.209C416.287 220.571 414.681 221.538 413.508 222.544C412.523 223.395 411.303 224.892 407.691 229.684C406.027 231.883 404.196 234.943 402.295 238.702C401.795 239.69 401.033 240.942 400.537 241.621C400.038 242.269 399.481 243.171 399.277 243.63C398.828 244.685 398.953 244.984 399.922 245.228C401.022 245.494 403.434 246.563 404.301 247.167C405.25 247.836 405.403 248.069 405.025 248.271C404.827 248.375 404.466 248.273 403.22 247.761C402.358 247.407 401.547 247.12 401.411 247.11C400.876 247.092 400.964 247.593 401.698 248.561C402.825 250.079 402.448 250.543 400.672 249.813C400.248 249.639 399.49 249.219 398.996 248.876C397.901 248.147 396.75 247.705 396.471 247.931C396.004 248.313 394.516 250.01 393.992 250.756C393.684 251.203 392.722 252.45 391.852 253.549C388.665 257.57 385.468 262.068 385.458 262.544C385.455 262.853 385.864 263.254 386.447 263.493C386.978 263.711 387.358 264.333 387.113 264.588C386.868 264.844 385.87 264.899 384.865 264.703C383.574 264.451 383.486 264.477 383.215 265.249C383.013 265.817 382.876 265.962 382.297 266.313C381.028 267.062 380.267 267.896 377.807 271.317C375.148 274.997 374.335 276.446 374.013 278.096C373.505 280.614 374.564 282.94 376.566 283.763C377.494 284.145 379.203 284.398 380.181 284.319C381.681 284.176 383.366 283.319 385.241 281.735C385.944 281.156 386.823 280.525 387.233 280.321C387.623 280.125 388.344 279.616 388.833 279.181C389.308 278.741 389.92 278.233 390.196 278.052C390.587 277.779 390.754 277.523 391.046 276.775C391.572 275.457 391.474 274.641 390.529 272.641C390.057 271.641 389.746 270.738 389.7 270.208C389.625 269.449 389.515 269.264 388.691 268.29C388.191 267.697 387.726 267.057 387.648 266.869C387.523 266.57 387.534 266.544 387.862 266.462C388.625 266.264 389.249 266.443 389.885 267.045C390.222 267.354 391.1 268.01 391.836 268.482C393.404 269.53 394.136 270.125 394.823 270.904C395.097 271.218 395.408 271.516 395.514 271.56C395.726 271.647 398.086 270.091 399.187 269.148C400.896 267.666 402.511 265.509 404.641 261.875C406.421 258.825 406.418 258.87 405.368 257.09C404.589 255.778 404.356 255.14 404.582 254.892C404.886 254.567 405.231 254.895 406.088 256.317C406.403 256.834 406.727 257.215 406.868 257.211C407.312 257.223 407.507 256.9 407.489 256.227C407.464 255.534 407.213 255.09 406.01 253.604C405.5 252.96 405.322 252.639 405.398 252.453C405.545 252.095 406.014 252.35 407.705 253.665C409.233 254.851 409.806 255.04 410.626 254.664C411.503 254.266 412.075 253.478 412.552 252.016C412.818 251.18 413.318 250.114 413.99 248.856C414.844 247.27 416.757 243.67 418.094 241.136C418.517 240.333 418.948 239.999 420.161 239.537C421.348 239.064 421.96 238.479 422.998 236.782C423.382 236.15 424.087 235.076 424.576 234.377C425.672 232.767 427.055 229.477 427.353 227.77C427.878 224.685 426.656 221.889 424.149 220.409C423.149 219.827 423.056 219.789 422.341 219.681Z" fill="#BBC1C6"/>
<path d="M304.28 195.019C302.829 194.779 301.022 195.292 299.978 196.211C298.356 197.667 297.166 201.13 296.83 205.378C296.648 207.705 296.63 209.558 296.798 210.169C297.163 211.543 298.249 212.067 301.075 212.206C303.081 212.302 303.373 212.422 303.138 212.992C302.887 213.602 300.75 213.901 299.188 213.553C298.619 213.428 298.095 213.383 298.031 213.465C297.781 213.734 297.78 214.339 298.04 215.065C298.429 216.155 298.827 216.241 300.104 215.511C300.733 215.149 301.034 215.056 301.222 215.165C301.646 215.416 301.424 215.805 300.672 216.163C300.282 216.359 299.778 216.679 299.563 216.9C299.085 217.386 298.503 218.727 298.287 219.894C297.996 221.355 297.6 225.748 297.619 227.135C297.667 229.883 298.507 232.816 299.94 235.25C300.999 237.049 301.834 237.919 302.768 238.21C303.413 238.413 303.746 238.395 305.064 238.131C305.912 237.952 306.757 237.819 306.946 237.85C307.427 237.924 307.733 238.159 307.688 238.419C307.627 238.719 305.969 239.51 305.247 239.57C304.927 239.593 304.423 239.727 304.1 239.873C303.608 240.089 303.489 240.226 303.222 240.876C302.939 241.566 302.931 241.888 303.088 244.106C303.482 249.445 304.59 255.836 305.474 257.981C305.966 259.16 306.256 259.434 307.609 259.99C308.643 260.415 308.93 260.471 309.782 260.434C310.93 260.394 312.239 259.848 313.058 259.1C313.539 258.646 313.693 258.384 314.306 256.854C315.127 254.82 315.412 253.109 315.52 249.604C315.673 245.235 315.171 241.479 313.942 237.797C313.142 235.407 312.983 234.21 313.196 232.221C313.609 228.578 312.703 223.619 310.662 218.177C309.553 215.257 309.434 214.077 309.569 207.716C309.706 201.387 309.392 199.135 308.179 197.412C307.33 196.195 305.795 195.254 304.28 195.019Z" fill="#BBC1C6"/>
<path d="M351.001 271.72C349.482 271.344 348.092 271.331 344.328 271.628C339.709 272.007 337.503 271.906 335.614 271.223C334.42 270.81 334.246 270.707 333.248 269.816C332.168 268.861 332.155 268.856 329.207 267.582C325.928 266.172 325.073 265.914 322.902 265.765C319.543 265.531 313.088 266.303 310.612 267.238C310.275 267.378 309.461 267.85 308.818 268.283C308.17 268.729 306.952 269.468 306.104 269.91C301.935 272.133 298.857 274.835 296.988 277.91C294.776 281.557 293.191 284.811 292.933 286.193C292.792 286.988 292.614 287.457 292.1 288.408C290.88 290.696 290.364 292.592 289.633 297.312C289.355 299.12 288.857 302.216 288.503 304.209C288.167 306.194 287.833 308.289 287.753 308.86C287.578 310.23 286.067 318.241 285.328 321.734C284.322 326.481 284.022 329.473 284.188 333.028C284.508 339.715 288.087 345.526 294.349 349.557C296.029 350.635 299.242 352.017 301.798 352.774C305.451 353.841 306.404 353.861 308.617 352.926C309.763 352.437 310.513 352.234 311.768 352.083C314.769 351.72 318.291 351.711 319.126 352.054C319.55 352.229 319.689 352.72 319.421 352.997C319.332 353.1 318.789 353.326 318.194 353.531C317.115 353.893 316.739 354.204 316.697 354.76C316.668 354.98 316.821 355.136 317.258 355.393C317.581 355.588 318.753 356.318 319.867 357.039C323.309 359.26 324.964 360.095 325.128 359.698C325.144 359.658 325.037 358.901 324.894 358.005C323.903 351.895 325.068 347.74 329.859 340.271C330.604 339.136 331.301 338.12 331.421 338.015C331.682 337.797 332.202 337.964 332.342 338.301C332.499 338.675 332.13 339.345 331.275 340.218C327.759 343.871 325.911 348.97 326.281 353.988C326.43 356.002 326.835 357.656 327.639 359.583C329.058 362.956 331.223 365.644 334.14 367.633C335.534 368.578 339.154 370.066 340.928 370.423C344.619 371.134 347.994 370.879 350.798 369.676C352.23 369.056 354.492 367.738 356.309 366.486C359.238 364.451 367.897 357.937 368.872 357.036C371.447 354.654 373.344 352.039 374.749 348.959C376.568 344.949 376.567 344.236 374.737 338.959C373.825 336.352 373.761 335.83 374.19 335.2C374.371 334.949 374.854 333.923 375.274 332.903L376.042 331.033L377.245 329.993C378.428 328.961 378.464 328.913 378.943 327.747C379.63 326.076 379.571 324.936 378.67 322.83C377.66 320.462 376.615 319.459 373.734 318.136C371.845 317.266 369.666 316.572 367.442 316.138C366.491 315.964 365.063 315.517 363.24 314.861C361.034 314.046 360.24 313.829 359.299 313.705C357.801 313.539 357.026 313.314 356.745 312.981C356.624 312.823 356.501 312.292 356.455 311.762C356.382 310.771 356.137 310.236 355.686 310.051C355.527 309.985 354.819 309.973 354.108 310.006C352.247 310.125 347.187 310.896 346.996 311.097C346.77 311.345 347.14 311.915 348.009 312.629C348.762 313.248 349.54 313.692 352.774 315.363C354.939 316.469 355.854 317.109 357.751 318.865C359.807 320.764 360.194 321.217 360.702 322.356C360.939 322.872 361.243 323.338 361.403 323.404C361.707 323.529 361.907 324.138 361.754 324.509C361.656 324.748 361.176 324.86 360.844 324.724C360.738 324.68 360.237 323.978 359.733 323.167C358.729 321.576 357.518 320.149 355.787 318.554C354.615 317.483 351.643 315.626 347.615 313.474C346.571 312.922 345.324 312.223 344.867 311.942C343.816 311.293 343.478 311.247 342.527 311.6C341.213 312.083 340.21 312.073 337.638 311.543C334.147 310.837 330.873 311.676 322.708 315.402C319.561 316.836 318.734 317.302 317.743 318.243C317.093 318.844 316.63 318.917 316.853 318.373C316.978 318.068 319.566 316.033 321.19 314.949C322.612 314.014 326.929 312.147 329.981 311.17C330.771 310.906 332.165 310.456 333.075 310.164C335.008 309.532 336.383 308.827 336.251 308.509C336.204 308.396 335.762 308.153 335.271 307.951C334.576 307.681 333.712 307.558 331.449 307.372C325.621 306.883 323.977 306.47 319.913 304.521C317.4 303.317 316.811 302.905 316.133 301.913C315.787 301.399 315.847 300.99 316.24 301.353C316.807 301.896 318.972 303.189 320.615 303.942C322.659 304.89 325.896 305.988 327.36 306.234C328.434 306.411 329.946 306.351 330.162 306.13C330.25 306.027 330.237 305.758 330.12 305.477L329.917 304.991L327.89 304.266C326.266 303.692 325.887 303.52 325.982 303.404C326.159 303.198 327.265 303.374 329.059 303.91C329.906 304.15 330.647 304.346 330.698 304.335C330.762 304.331 331.656 304.605 332.696 304.94C333.744 305.293 335.096 305.663 335.723 305.797C336.525 305.956 337.536 306.325 339.307 307.068L341.762 308.108L344.72 308.302C347.942 308.495 352.088 308.587 354.203 308.495C355.997 308.427 358.927 307.973 359.307 307.727C360.017 307.244 359.403 306.325 357.811 305.484C357.215 305.162 356.172 304.609 355.51 304.259C353.955 303.404 351.431 302.381 349.273 301.711C348.326 301.415 347.177 301.005 346.705 300.795C346.233 300.586 345.127 300.224 344.243 300C343.358 299.776 341.606 299.288 340.34 298.938C339.073 298.588 337.73 298.237 337.331 298.151C336.946 298.07 336.003 297.837 335.241 297.617C334.493 297.403 333.279 297.151 332.526 297.059C331.792 296.959 330.937 296.778 330.645 296.658C329.982 296.386 327.378 295.935 325.737 295.818C324.683 295.742 324.184 295.598 321.839 294.743C315.592 292.485 312.037 291.783 307.277 291.903C305.216 291.939 305.077 291.975 304.941 292.307C304.794 292.665 305.063 292.915 306.575 293.722C307.754 294.362 308.382 294.605 310.994 295.415C312.677 295.921 314.49 296.449 315.018 296.558C315.698 296.713 316.003 296.838 316.058 296.969C316.175 297.25 315.522 297.292 313.876 297.111C310.643 296.758 307.15 295.679 303.616 293.947C301.962 293.144 301.645 292.936 301.134 292.369C300.454 291.609 300.236 290.745 300.547 289.989C300.792 289.393 301.239 289.173 302.318 289.074C303.058 289.007 303.228 289.046 304.57 289.628C305.765 290.15 306.264 290.294 307.413 290.44C308.179 290.538 309.59 290.762 310.536 290.949C311.487 291.123 313.223 291.387 314.403 291.531C317.485 291.915 318.18 292.108 321.519 293.449C324.6 294.7 324.489 294.67 327.647 295.131C327.92 295.181 328.723 295.264 329.428 295.321C332.056 295.564 339.786 297.006 342.672 297.789C343.551 298.026 344.657 298.388 345.148 298.59C345.625 298.786 346.381 299.019 346.793 299.111C347.582 299.265 349.265 300.034 356.852 303.633C360.069 305.157 360.882 305.631 361.768 306.491C361.947 306.658 362.265 306.866 362.477 306.953C362.689 307.04 363.106 307.382 363.388 307.715C363.67 308.048 363.994 308.351 364.114 308.4C364.432 308.531 367.101 308.296 368.648 308.002C370.157 307.723 372.617 306.828 373.723 306.136C374.893 305.439 376.335 304.079 377.26 302.847C378.045 301.806 378.202 301.499 378.836 299.806C379.609 297.738 379.8 296.406 379.59 294.615C379.188 291.257 377.702 288.879 373.152 284.375C370.94 282.179 370.131 281.583 368.381 280.864C366.3 280.008 366.039 280.227 366.414 282.519C366.581 283.471 366.578 283.78 366.401 283.909C366.029 284.174 365.753 284.014 365.212 283.219C364.672 282.423 361.486 279.238 359.918 277.927C359.424 277.507 358.35 276.725 357.525 276.169C356.695 275.626 355.5 274.686 354.851 274.078C353.849 273.124 352.442 272.096 351.97 271.964C351.898 271.95 351.452 271.828 351.001 271.72ZM359.616 292.913C358.948 294.84 358.684 295.971 358.754 296.744C358.811 297.434 359.684 299.42 360.231 300.125C361.054 301.176 361.2 302.708 360.489 303.005C360.077 303.177 359.755 302.905 359.145 301.864C357.871 299.759 357.464 298.073 357.797 296.319C358.071 294.975 357.558 294.826 356.239 295.849C355.357 296.525 354.553 296.861 353.65 296.908C352.145 296.987 352.031 296.661 353.406 296.219C354.618 295.834 355.963 294.899 358.162 292.905C359.18 291.975 360.057 291.235 360.097 291.252C360.137 291.268 359.922 292.017 359.616 292.913ZM337.989 285.542C338.059 285.711 338.052 286.405 337.998 287.065C337.938 287.738 337.981 288.577 338.087 288.961C338.488 290.397 338.579 291.194 338.482 292.146C338.359 293.351 338.231 293.701 337.808 293.899C336.864 294.348 336.152 293.141 335.951 290.764C335.782 288.836 335.973 287.581 336.626 286.331C337.301 285.027 337.727 284.784 337.989 285.542ZM322.635 281.045C322.285 282.234 322.207 283.782 322.407 285.182C322.497 285.792 322.524 286.594 322.475 286.976C322.397 287.58 322.329 287.707 322.024 287.922C321.51 288.269 320.844 287.964 320.46 287.202C320.157 286.582 320.083 285.141 320.264 283.495C320.468 281.642 322.03 279.463 322.783 280.005C322.852 280.064 322.776 280.514 322.635 281.045Z" fill="#BBC1C6"/>
<path d="M425.279 329.374C423.301 328.87 420.558 328.719 418.811 329.009C416.385 329.406 413.98 330.432 412.846 331.531C411.414 332.942 411.211 333.06 409.608 333.377C407.752 333.746 406.921 333.993 404.362 334.941C398.36 337.138 396.529 337.672 394.019 337.896C392.378 338.043 391.043 337.974 389.67 337.657C387.428 337.154 385.328 337.361 383.339 338.279C382.128 338.85 381.267 339.55 380.431 340.679C379.174 342.379 378.027 346.526 378.186 348.854C378.248 349.948 378.849 351.125 379.628 351.755C380.714 352.62 381.297 352.596 384.176 351.626C386.083 350.983 388.997 350.415 391.742 350.148C395.738 349.776 396.405 349.663 397.593 349.221C398.876 348.741 399.691 348.115 400.358 347.134C400.595 346.782 400.964 346.376 401.191 346.237C401.406 346.093 401.618 345.916 401.65 345.837C401.678 345.77 401.784 345.737 401.89 345.78C402.01 345.829 401.965 346.353 401.72 347.477C401.351 349.278 401.06 351.607 401.182 351.952C401.324 352.398 401.822 352.432 402.661 352.049C403.121 351.835 403.783 351.657 404.129 351.645C404.752 351.637 411.859 352.295 416.802 352.824C420.352 353.199 421.217 353.167 424.29 352.477C427.926 351.663 428.687 351.433 430.251 350.758C435.044 348.637 437.535 345.027 437.246 340.678C437.013 337.172 434.761 334.093 430.653 331.645C429.295 330.838 426.615 329.706 425.279 329.374Z" fill="#BBC1C6"/>
<path d="M373.21 311.117C372.941 311.13 372.357 311.231 371.922 311.347C370.876 311.63 370.435 311.572 368.633 310.94C366.463 310.187 365.035 310.081 363.614 310.597C362.593 310.968 361.864 310.932 360.86 310.472C359.323 309.763 359.028 309.688 358.327 309.772C357.141 309.905 356.95 310.709 357.844 311.852C358.617 312.836 359.039 313.056 360.515 313.198C363.201 313.449 364.338 313.7 366.067 314.395L367.729 315.063L370.481 315.155C373.735 315.269 373.943 315.215 374.439 314.008C374.837 313.041 374.776 312.132 374.265 311.566C373.86 311.12 373.833 311.109 373.21 311.117Z" fill="#BBC1C6"/>
</g>
</svg>
