<svg width="430" height="258" viewBox="0 0 430 258" fill="none" xmlns="http://www.w3.org/2000/svg">
<path d="M3.06 203C2.86 203 2.69 202.93 2.55 202.79C2.41 202.65 2.34 202.48 2.34 202.28L2.34 182.75C2.34 182.53 2.4 182.35 2.52 182.21C2.66 182.07 2.84 182 3.06 182L16.8 182C17.02 182 17.19 182.07 17.31 182.21C17.45 182.35 17.52 182.53 17.52 182.75L17.52 184.85C17.52 185.05 17.45 185.22 17.31 185.36C17.19 185.5 17.02 185.57 16.8 185.57L6.51 185.57L6.51 190.37L11.58 190.37C13.84 190.37 15.61 190.93 16.89 192.05C18.17 193.17 18.81 194.69 18.81 196.61C18.81 197.75 18.53 198.81 17.97 199.79C17.43 200.75 16.61 201.53 15.51 202.13C14.43 202.71 13.12 203 11.58 203L3.06 203ZM11.16 199.82C12.18 199.82 12.99 199.51 13.59 198.89C14.21 198.25 14.52 197.47 14.52 196.55C14.52 195.63 14.23 194.89 13.65 194.33C13.07 193.77 12.24 193.49 11.16 193.49L6.51 193.49L6.51 199.82L11.16 199.82ZM22.5131 203C22.2931 203 22.1131 202.93 21.9731 202.79C21.8531 202.65 21.7931 202.47 21.7931 202.25L21.7931 182.75C21.7931 182.53 21.8631 182.35 22.0031 182.21C22.1431 182.07 22.3231 182 22.5431 182L25.2431 182C25.4631 182 25.6331 182.07 25.7531 182.21C25.8931 182.35 25.9631 182.53 25.9631 182.75L25.9631 196.52L35.8331 182.48C36.0531 182.16 36.3431 182 36.7031 182L39.1931 182C39.4131 182 39.5831 182.07 39.7031 182.21C39.8431 182.35 39.9131 182.53 39.9131 182.75L39.9131 202.28C39.9131 202.48 39.8431 202.65 39.7031 202.79C39.5831 202.93 39.4131 203 39.1931 203L36.4931 203C36.2731 203 36.0931 202.94 35.9531 202.82C35.8131 202.68 35.7431 202.5 35.7431 202.28L35.7431 188.78L25.9031 202.52C25.7831 202.68 25.6631 202.8 25.5431 202.88C25.4231 202.96 25.2531 203 25.0331 203L22.5131 203ZM49.9261 203C49.7261 203 49.5561 202.93 49.4161 202.79C49.2761 202.65 49.2061 202.48 49.2061 202.28L49.2061 185.69L43.6561 185.69C43.4561 185.69 43.2861 185.62 43.1461 185.48C43.0061 185.34 42.9361 185.17 42.9361 184.97L42.9361 182.75C42.9361 182.53 42.9961 182.35 43.1161 182.21C43.2561 182.07 43.4361 182 43.6561 182L58.9561 182C59.1761 182 59.3561 182.07 59.4961 182.21C59.6361 182.35 59.7061 182.53 59.7061 182.75L59.7061 184.97C59.7061 185.17 59.6361 185.34 59.4961 185.48C59.3561 185.62 59.1761 185.69 58.9561 185.69L53.4361 185.69L53.4361 202.28C53.4361 202.48 53.3661 202.65 53.2261 202.79C53.0861 202.93 52.9061 203 52.6861 203L49.9261 203ZM63.4702 203C63.2702 203 63.1002 202.93 62.9602 202.79C62.8202 202.65 62.7502 202.48 62.7502 202.28L62.7502 182.75C62.7502 182.53 62.8102 182.35 62.9302 182.21C63.0702 182.07 63.2502 182 63.4702 182L72.1702 182C74.5102 182 76.2502 182.52 77.3902 183.56C78.5502 184.58 79.1302 185.98 79.1302 187.76C79.1302 188.8 78.8702 189.69 78.3502 190.43C77.8502 191.15 77.2602 191.67 76.5802 191.99C77.4202 192.37 78.1202 192.99 78.6802 193.85C79.2602 194.71 79.5502 195.69 79.5502 196.79C79.5502 198.65 78.9202 200.15 77.6602 201.29C76.4202 202.43 74.6702 203 72.4102 203L63.4702 203ZM71.6302 190.61C72.6702 190.61 73.4602 190.36 74.0002 189.86C74.5402 189.36 74.8102 188.69 74.8102 187.85C74.8102 186.99 74.5402 186.33 74.0002 185.87C73.4602 185.39 72.6702 185.15 71.6302 185.15L66.9202 185.15L66.9202 190.61L71.6302 190.61ZM71.9302 199.82C72.9702 199.82 73.7802 199.54 74.3602 198.98C74.9402 198.4 75.2302 197.67 75.2302 196.79C75.2302 195.89 74.9402 195.16 74.3602 194.6C73.7802 194.02 72.9702 193.73 71.9302 193.73L66.9202 193.73L66.9202 199.82L71.9302 199.82ZM82.0266 203C81.8666 203 81.7166 202.94 81.5766 202.82C81.4566 202.7 81.3966 202.55 81.3966 202.37L81.4566 202.1L88.6866 182.75C88.8266 182.25 89.1766 182 89.7366 182L93.0066 182C93.5266 182 93.8766 182.25 94.0566 182.75L101.287 202.1C101.307 202.16 101.317 202.25 101.317 202.37C101.317 202.55 101.257 202.7 101.137 202.82C101.017 202.94 100.877 203 100.717 203L98.1066 203C97.8466 203 97.6466 202.94 97.5066 202.82C97.3666 202.7 97.2766 202.57 97.2366 202.43L95.8266 198.77L86.9166 198.77L85.5066 202.43C85.3466 202.81 85.0566 203 84.6366 203L82.0266 203ZM94.7766 195.32L91.3566 186.05L87.9666 195.32L94.7766 195.32ZM111.208 241C110.975 241 110.777 240.93 110.613 240.79C110.473 240.627 110.403 240.428 110.403 240.195L110.403 217.34C110.403 217.083 110.473 216.885 110.613 216.745C110.777 216.582 110.975 216.5 111.208 216.5L128.463 216.5C128.72 216.5 128.918 216.582 129.058 216.745C129.222 216.885 129.303 217.083 129.303 217.34L129.303 240.195C129.303 240.428 129.222 240.627 129.058 240.79C128.895 240.93 128.697 241 128.463 241L126.678 241C126.445 241 126.247 240.93 126.083 240.79C125.943 240.627 125.873 240.428 125.873 240.195L125.873 219.65L113.833 219.65L113.833 240.195C113.833 240.428 113.752 240.627 113.588 240.79C113.425 240.93 113.227 241 112.993 241L111.208 241ZM136.194 241C135.96 241 135.762 240.93 135.599 240.79C135.459 240.627 135.389 240.428 135.389 240.195L135.389 217.34C135.389 217.083 135.459 216.885 135.599 216.745C135.762 216.582 135.96 216.5 136.194 216.5L145.084 216.5C147.72 216.5 149.797 217.142 151.314 218.425C152.83 219.708 153.589 221.563 153.589 223.99C153.589 226.417 152.83 228.272 151.314 229.555C149.82 230.815 147.744 231.445 145.084 231.445L138.889 231.445L138.889 240.195C138.889 240.428 138.807 240.627 138.644 240.79C138.48 240.93 138.282 241 138.049 241L136.194 241ZM144.909 228.505C146.612 228.505 147.895 228.12 148.759 227.35C149.645 226.58 150.089 225.46 150.089 223.99C150.089 222.52 149.657 221.4 148.794 220.63C147.93 219.837 146.635 219.44 144.909 219.44L138.854 219.44L138.854 228.505L144.909 228.505ZM166.665 241.35C163.608 241.35 161.24 240.557 159.56 238.97C157.903 237.36 157.028 234.945 156.935 231.725C156.911 231.025 156.9 230.033 156.9 228.75C156.9 227.467 156.911 226.487 156.935 225.81C157.028 222.66 157.938 220.268 159.665 218.635C161.391 216.978 163.725 216.15 166.665 216.15C169.581 216.15 171.903 216.978 173.63 218.635C175.356 220.268 176.266 222.66 176.36 225.81C176.406 227.163 176.43 228.143 176.43 228.75C176.43 229.333 176.406 230.325 176.36 231.725C176.266 234.945 175.38 237.36 173.7 238.97C172.043 240.557 169.698 241.35 166.665 241.35ZM166.665 238.375C168.508 238.375 169.978 237.815 171.075 236.695C172.171 235.575 172.766 233.86 172.86 231.55C172.906 230.15 172.93 229.217 172.93 228.75C172.93 228.237 172.906 227.303 172.86 225.95C172.766 223.64 172.16 221.925 171.04 220.805C169.943 219.685 168.485 219.125 166.665 219.125C164.821 219.125 163.34 219.685 162.22 220.805C161.123 221.925 160.528 223.64 160.435 225.95C160.411 226.627 160.4 227.56 160.4 228.75C160.4 229.917 160.411 230.85 160.435 231.55C160.528 233.86 161.123 235.575 162.22 236.695C163.34 237.815 164.821 238.375 166.665 238.375ZM182.336 241C182.103 241 181.905 240.93 181.741 240.79C181.601 240.627 181.531 240.428 181.531 240.195L181.531 217.34C181.531 217.083 181.601 216.885 181.741 216.745C181.905 216.582 182.103 216.5 182.336 216.5L195.811 216.5C196.068 216.5 196.266 216.582 196.406 216.745C196.57 216.885 196.651 217.083 196.651 217.34L196.651 218.74C196.651 218.973 196.57 219.172 196.406 219.335C196.266 219.475 196.068 219.545 195.811 219.545L184.961 219.545L184.961 240.195C184.961 240.428 184.88 240.627 184.716 240.79C184.553 240.93 184.355 241 184.121 241L182.336 241ZM200.657 241C200.423 241 200.225 240.93 200.062 240.79C199.922 240.627 199.852 240.428 199.852 240.195L199.852 217.34C199.852 217.083 199.922 216.885 200.062 216.745C200.225 216.582 200.423 216.5 200.657 216.5L209.547 216.5C212.183 216.5 214.26 217.142 215.777 218.425C217.293 219.708 218.052 221.563 218.052 223.99C218.052 226.417 217.293 228.272 215.777 229.555C214.283 230.815 212.207 231.445 209.547 231.445L203.352 231.445L203.352 240.195C203.352 240.428 203.27 240.627 203.107 240.79C202.943 240.93 202.745 241 202.512 241L200.657 241ZM209.372 228.505C211.075 228.505 212.358 228.12 213.222 227.35C214.108 226.58 214.552 225.46 214.552 223.99C214.552 222.52 214.12 221.4 213.257 220.63C212.393 219.837 211.098 219.44 209.372 219.44L203.317 219.44L203.317 228.505L209.372 228.505ZM220.663 241C220.476 241 220.313 240.93 220.173 240.79C220.033 240.65 219.963 240.487 219.963 240.3C219.963 240.113 219.974 239.985 219.998 239.915L228.678 217.27C228.864 216.757 229.238 216.5 229.798 216.5L232.178 216.5C232.738 216.5 233.111 216.757 233.298 217.27L241.943 239.915L242.013 240.3C242.013 240.487 241.943 240.65 241.803 240.79C241.663 240.93 241.499 241 241.313 241L239.528 241C239.271 241 239.073 240.942 238.933 240.825C238.793 240.685 238.699 240.545 238.653 240.405L236.728 235.435L225.248 235.435L223.323 240.405C223.276 240.545 223.171 240.685 223.008 240.825C222.868 240.942 222.681 241 222.448 241L220.663 241ZM235.713 232.425L230.988 220L226.263 232.425L235.713 232.425ZM246.56 241C246.327 241 246.128 240.93 245.965 240.79C245.825 240.627 245.755 240.428 245.755 240.195L245.755 217.34C245.755 217.083 245.825 216.885 245.965 216.745C246.128 216.582 246.327 216.5 246.56 216.5L248.31 216.5C248.683 216.5 248.987 216.687 249.22 217.06L256.605 231.2L264.06 217.06C264.107 216.92 264.2 216.792 264.34 216.675C264.503 216.558 264.702 216.5 264.935 216.5L266.65 216.5C266.907 216.5 267.105 216.582 267.245 216.745C267.408 216.885 267.49 217.083 267.49 217.34L267.49 240.195C267.49 240.428 267.408 240.627 267.245 240.79C267.082 240.93 266.883 241 266.65 241L264.935 241C264.702 241 264.503 240.93 264.34 240.79C264.2 240.627 264.13 240.428 264.13 240.195L264.13 222.975L258.285 234.385C258.052 234.875 257.678 235.12 257.165 235.12L256.08 235.12C255.567 235.12 255.193 234.875 254.96 234.385L249.08 222.975L249.08 240.195C249.08 240.428 248.998 240.627 248.835 240.79C248.695 240.93 248.508 241 248.275 241L246.56 241ZM274.348 241C274.115 241 273.916 240.93 273.753 240.79C273.613 240.627 273.543 240.428 273.543 240.195L273.543 217.34C273.543 217.083 273.613 216.885 273.753 216.745C273.916 216.582 274.115 216.5 274.348 216.5L276.098 216.5C276.471 216.5 276.775 216.687 277.008 217.06L284.393 231.2L291.848 217.06C291.895 216.92 291.988 216.792 292.128 216.675C292.291 216.558 292.49 216.5 292.723 216.5L294.438 216.5C294.695 216.5 294.893 216.582 295.033 216.745C295.196 216.885 295.278 217.083 295.278 217.34L295.278 240.195C295.278 240.428 295.196 240.627 295.033 240.79C294.87 240.93 294.671 241 294.438 241L292.723 241C292.49 241 292.291 240.93 292.128 240.79C291.988 240.627 291.918 240.428 291.918 240.195L291.918 222.975L286.073 234.385C285.84 234.875 285.466 235.12 284.953 235.12L283.868 235.12C283.355 235.12 282.981 234.875 282.748 234.385L276.868 222.975L276.868 240.195C276.868 240.428 276.786 240.627 276.623 240.79C276.483 240.93 276.296 241 276.063 241L274.348 241ZM302.136 241C301.903 241 301.704 240.93 301.541 240.79C301.401 240.627 301.331 240.417 301.331 240.16L301.331 217.34C301.331 217.083 301.401 216.885 301.541 216.745C301.704 216.582 301.903 216.5 302.136 216.5L303.956 216.5C304.189 216.5 304.376 216.582 304.516 216.745C304.679 216.908 304.761 217.107 304.761 217.34L304.761 235.435L317.816 216.99C318.003 216.663 318.294 216.5 318.691 216.5L320.406 216.5C320.639 216.5 320.826 216.582 320.966 216.745C321.129 216.885 321.211 217.083 321.211 217.34L321.211 240.195C321.211 240.428 321.129 240.627 320.966 240.79C320.826 240.93 320.639 241 320.406 241L318.621 241C318.388 241 318.189 240.93 318.026 240.79C317.863 240.627 317.781 240.428 317.781 240.195L317.781 222.24L304.761 240.51C304.574 240.837 304.283 241 303.886 241L302.136 241ZM336.128 241.35C333.001 241.35 330.621 240.51 328.988 238.83C327.378 237.15 326.514 234.828 326.398 231.865C326.374 231.235 326.363 230.208 326.363 228.785C326.363 227.338 326.374 226.288 326.398 225.635C326.514 222.695 327.389 220.385 329.023 218.705C330.656 217.002 333.024 216.15 336.128 216.15C338.204 216.15 339.966 216.523 341.413 217.27C342.859 217.993 343.956 218.95 344.703 220.14C345.449 221.33 345.858 222.602 345.928 223.955L345.928 224.025C345.928 224.212 345.846 224.375 345.683 224.515C345.543 224.632 345.379 224.69 345.193 224.69L343.268 224.69C342.801 224.69 342.509 224.422 342.393 223.885C341.996 222.135 341.284 220.91 340.258 220.21C339.231 219.487 337.854 219.125 336.128 219.125C332.114 219.125 330.038 221.353 329.898 225.81C329.874 226.44 329.863 227.408 329.863 228.715C329.863 230.022 329.874 231.013 329.898 231.69C330.038 236.147 332.114 238.375 336.128 238.375C337.854 238.375 339.231 238.025 340.258 237.325C341.308 236.602 342.019 235.365 342.393 233.615C342.463 233.312 342.568 233.102 342.708 232.985C342.848 232.868 343.034 232.81 343.268 232.81L345.193 232.81C345.403 232.81 345.578 232.88 345.718 233.02C345.881 233.137 345.951 233.3 345.928 233.51C345.858 234.887 345.449 236.17 344.703 237.36C343.956 238.55 342.859 239.518 341.413 240.265C339.966 240.988 338.204 241.35 336.128 241.35ZM356.778 241C356.545 241 356.347 240.93 356.183 240.79C356.043 240.627 355.973 240.428 355.973 240.195L355.973 219.615L349.253 219.615C349.02 219.615 348.822 219.545 348.658 219.405C348.518 219.242 348.448 219.043 348.448 218.81L348.448 217.34C348.448 217.107 348.518 216.908 348.658 216.745C348.822 216.582 349.02 216.5 349.253 216.5L366.123 216.5C366.38 216.5 366.578 216.582 366.718 216.745C366.882 216.885 366.963 217.083 366.963 217.34L366.963 218.81C366.963 219.043 366.882 219.242 366.718 219.405C366.555 219.545 366.357 219.615 366.123 219.615L359.438 219.615L359.438 240.195C359.438 240.428 359.357 240.627 359.193 240.79C359.03 240.93 358.832 241 358.598 241L356.778 241ZM379.707 241.35C376.65 241.35 374.282 240.557 372.602 238.97C370.945 237.36 370.07 234.945 369.977 231.725C369.953 231.025 369.942 230.033 369.942 228.75C369.942 227.467 369.953 226.487 369.977 225.81C370.07 222.66 370.98 220.268 372.707 218.635C374.433 216.978 376.767 216.15 379.707 216.15C382.623 216.15 384.945 216.978 386.672 218.635C388.398 220.268 389.308 222.66 389.402 225.81C389.448 227.163 389.472 228.143 389.472 228.75C389.472 229.333 389.448 230.325 389.402 231.725C389.308 234.945 388.422 237.36 386.742 238.97C385.085 240.557 382.74 241.35 379.707 241.35ZM379.707 238.375C381.55 238.375 383.02 237.815 384.117 236.695C385.213 235.575 385.808 233.86 385.902 231.55C385.948 230.15 385.972 229.217 385.972 228.75C385.972 228.237 385.948 227.303 385.902 225.95C385.808 223.64 385.202 221.925 384.082 220.805C382.985 219.685 381.527 219.125 379.707 219.125C377.863 219.125 376.382 219.685 375.262 220.805C374.165 221.925 373.57 223.64 373.477 225.95C373.453 226.627 373.442 227.56 373.442 228.75C373.442 229.917 373.453 230.85 373.477 231.55C373.57 233.86 374.165 235.575 375.262 236.695C376.382 237.815 377.863 238.375 379.707 238.375ZM395.378 241C395.145 241 394.947 240.93 394.783 240.79C394.643 240.627 394.573 240.428 394.573 240.195L394.573 217.34C394.573 217.083 394.643 216.885 394.783 216.745C394.947 216.582 395.145 216.5 395.378 216.5L404.968 216.5C407.465 216.5 409.343 217.095 410.603 218.285C411.863 219.475 412.493 221.038 412.493 222.975C412.493 224.282 412.19 225.367 411.583 226.23C411 227.093 410.3 227.723 409.483 228.12C410.463 228.61 411.292 229.368 411.968 230.395C412.645 231.422 412.983 232.6 412.983 233.93C412.983 235.237 412.68 236.427 412.073 237.5C411.49 238.573 410.615 239.425 409.448 240.055C408.282 240.685 406.882 241 405.248 241L395.378 241ZM404.443 226.86C405.913 226.86 407.033 226.522 407.803 225.845C408.597 225.168 408.993 224.223 408.993 223.01C408.993 221.82 408.608 220.91 407.838 220.28C407.068 219.65 405.937 219.335 404.443 219.335L398.003 219.335L398.003 226.86L404.443 226.86ZM404.793 238.165C406.263 238.165 407.407 237.768 408.223 236.975C409.063 236.182 409.483 235.167 409.483 233.93C409.483 232.647 409.063 231.62 408.223 230.85C407.407 230.057 406.263 229.66 404.793 229.66L398.003 229.66L398.003 238.165L404.793 238.165Z" fill="#1F3041"/>
<path d="M6.055 239.635C5.845 239.635 5.67 239.565 5.53 239.425C5.39 239.285 5.33167 239.11 5.355 238.9L5.985 234.665L2.52 234.665C2.28667 234.665 2.1 234.595 1.96 234.455C1.82 234.315 1.75 234.128 1.75 233.895L1.75 232.705C1.75 232.472 1.82 232.285 1.96 232.145C2.1 232.005 2.28667 231.935 2.52 231.935L6.405 231.935L7.315 225.775L3.43 225.775C3.19667 225.775 3.01 225.705 2.87 225.565C2.73 225.425 2.66 225.238 2.66 225.005L2.66 223.815C2.66 223.582 2.73 223.395 2.87 223.255C3.01 223.115 3.19667 223.045 3.43 223.045L7.735 223.045L8.365 218.81C8.41167 218.6 8.49333 218.425 8.61 218.285C8.75 218.145 8.925 218.075 9.135 218.075L10.43 218.075C10.64 218.075 10.815 218.145 10.955 218.285C11.095 218.425 11.1533 218.6 11.13 218.81L10.5 223.045L15.68 223.045L16.31 218.81C16.3567 218.6 16.4383 218.425 16.555 218.285C16.695 218.145 16.87 218.075 17.08 218.075L18.375 218.075C18.585 218.075 18.76 218.145 18.9 218.285C19.04 218.425 19.0983 218.6 19.075 218.81L18.445 223.045L21.84 223.045C22.0733 223.045 22.26 223.115 22.4 223.255C22.5633 223.395 22.645 223.582 22.645 223.815L22.645 225.005C22.645 225.238 22.5633 225.425 22.4 225.565C22.26 225.705 22.0733 225.775 21.84 225.775L18.06 225.775L17.15 231.935L20.93 231.935C21.1633 231.935 21.35 232.005 21.49 232.145C21.6533 232.285 21.735 232.472 21.735 232.705L21.735 233.895C21.735 234.128 21.6533 234.315 21.49 234.455C21.35 234.595 21.1633 234.665 20.93 234.665L16.73 234.665L16.1 238.9C16.0533 239.11 15.96 239.285 15.82 239.425C15.68 239.565 15.505 239.635 15.295 239.635L14 239.635C13.79 239.635 13.615 239.565 13.475 239.425C13.335 239.285 13.2767 239.11 13.3 238.9L13.93 234.665L8.785 234.665L8.155 238.9C8.10833 239.11 8.015 239.285 7.875 239.425C7.735 239.565 7.56 239.635 7.35 239.635L6.055 239.635ZM14.35 231.935L15.26 225.775L10.115 225.775L9.205 231.935L14.35 231.935ZM35.7093 241L32.5593 241L32.5593 218.775L24.7543 218.775L24.7543 216.01L43.4793 216.01L43.4793 218.775L35.7093 218.775L35.7093 241ZM47.7025 241C47.4692 241 47.2709 240.93 47.1075 240.79C46.9675 240.627 46.8975 240.428 46.8975 240.195L46.8975 217.305C46.8975 217.072 46.9675 216.885 47.1075 216.745C47.2709 216.582 47.4692 216.5 47.7025 216.5L49.4875 216.5C49.7209 216.5 49.9192 216.582 50.0825 216.745C50.2459 216.885 50.3275 217.072 50.3275 217.305L50.3275 225.81L54.8075 225.81C57.3742 225.81 59.3459 226.452 60.7225 227.735C62.0992 228.995 62.7875 230.85 62.7875 233.3C62.7875 234.677 62.4842 235.948 61.8775 237.115C61.2942 238.282 60.3959 239.227 59.1825 239.95C57.9925 240.65 56.5342 241 54.8075 241L47.7025 241ZM66.9525 241C66.7192 241 66.5209 240.93 66.3575 240.79C66.2175 240.627 66.1475 240.428 66.1475 240.195L66.1475 217.305C66.1475 217.072 66.2175 216.885 66.3575 216.745C66.5209 216.582 66.7192 216.5 66.9525 216.5L68.8075 216.5C69.0409 216.5 69.2275 216.582 69.3675 216.745C69.5309 216.885 69.6125 217.072 69.6125 217.305L69.6125 240.195C69.6125 240.428 69.5309 240.627 69.3675 240.79C69.2275 240.93 69.0409 241 68.8075 241L66.9525 241ZM54.5275 238.06C56.0209 238.06 57.1875 237.628 58.0275 236.765C58.8675 235.878 59.2875 234.7 59.2875 233.23C59.2875 230.22 57.7009 228.715 54.5275 228.715L50.3275 228.715L50.3275 238.06L54.5275 238.06ZM105.916 239.775C105.963 239.845 105.986 239.973 105.986 240.16C105.986 240.393 105.904 240.592 105.741 240.755C105.601 240.918 105.414 241 105.181 241L103.221 241C102.801 241 102.486 240.825 102.276 240.475L95.556 230.15L91.671 230.15L91.671 240.23C91.671 240.463 91.5893 240.65 91.426 240.79C91.286 240.93 91.0993 241 90.866 241L89.116 241C88.8827 241 88.6843 240.93 88.521 240.79C88.381 240.627 88.311 240.428 88.311 240.195L88.311 230.15L84.391 230.15L77.706 240.475C77.5893 240.638 77.461 240.767 77.321 240.86C77.2043 240.953 77.0293 241 76.796 241L74.801 241C74.5677 241 74.3693 240.918 74.206 240.755C74.066 240.592 73.996 240.393 73.996 240.16C73.996 239.997 74.031 239.868 74.101 239.775L81.486 228.365L74.766 217.655C74.6493 217.468 74.591 217.317 74.591 217.2C74.591 216.733 74.836 216.5 75.326 216.5L77.181 216.5C77.7177 216.5 78.1143 216.687 78.371 217.06L84.566 227.035L88.311 227L88.311 217.305C88.311 217.072 88.381 216.885 88.521 216.745C88.6843 216.582 88.8827 216.5 89.116 216.5L90.866 216.5C91.0993 216.5 91.286 216.582 91.426 216.745C91.5893 216.885 91.671 217.072 91.671 217.305L91.671 227L95.381 227.035L101.576 217.06C101.833 216.687 102.229 216.5 102.766 216.5L104.691 216.5C104.924 216.5 105.099 216.57 105.216 216.71C105.333 216.827 105.391 216.99 105.391 217.2C105.391 217.27 105.344 217.422 105.251 217.655L98.496 228.365L105.916 239.775Z" fill="#F04E4B"/>
<g opacity="0.7">
<path d="M216.851 32.0744C214.902 31.8003 212.079 32.2979 210.31 33.2447C208.716 34.108 206.816 35.9773 205.611 37.8531C205.352 38.2579 204.507 39.7086 203.733 41.0642C202.404 43.4313 202.287 43.6777 201.095 46.9539C200.417 48.8294 198.969 52.5423 197.9 55.218C196.586 58.4903 195.894 60.3603 195.785 60.9662C195.622 61.8138 195.587 61.8614 194.735 62.7663C193.149 64.4389 192.964 64.8125 189.841 72.4092C186.882 79.6081 186.619 80.3989 186.817 81.4256C186.921 81.9643 187.186 82.0733 189.699 82.5949C190.789 82.8102 191.753 83.0669 191.85 83.169C192.201 83.4837 192.038 83.8043 191.411 84.0113C190.933 84.1558 190.831 84.2533 190.896 84.4349C190.966 84.6033 191.178 84.6905 191.707 84.7993C192.451 84.9501 192.792 85.2142 192.661 85.5324C192.546 85.8108 191.947 85.8744 191.054 85.7088C188.578 85.2488 186.263 86.5444 184.803 89.2297C182.451 93.517 182.537 101.642 184.954 104.17C185.636 104.884 186.988 105.44 187.844 105.358C188.547 105.306 190.923 104.314 192.109 103.577C192.527 103.315 193.31 102.692 193.852 102.202C196.1 100.166 199.611 93.9993 199.532 92.231C199.519 91.8849 199.42 91.4101 199.313 91.1802C199.031 90.5839 197.987 89.5039 197.254 89.0631C196.5 88.5981 196.24 88.1351 196.594 87.8776C196.924 87.6412 197.452 87.8272 198.297 88.4847C199.389 89.3362 199.67 89.4054 200.539 89.065C201.543 88.6566 202.308 87.9638 203.46 86.4068C205.482 83.6736 206.807 81.2426 207.402 79.1161C207.619 78.3994 208.222 76.5551 208.759 75.0243C209.295 73.4935 209.807 71.9837 209.892 71.6625C210.16 70.6721 210.016 70.4578 208.39 69.5107C207.22 68.8128 206.245 68.3963 203.041 67.1415C199.27 65.6842 199.124 65.6243 198.976 65.2688C198.632 64.4457 199.256 64.0204 200.602 64.1397C201.248 64.1884 201.552 64.1274 201.888 63.8777C202.59 63.3759 203.072 63.2953 204.9 63.4112C206.547 63.5146 206.632 63.5341 208.233 64.2387C210.862 65.3816 212.038 65.7255 212.679 65.524C213.32 65.3224 213.358 65.2296 214.231 61.8999C214.714 60.0838 214.864 59.6806 217.148 54.6526C220.103 48.1032 222.019 43.4817 222.369 41.9517C222.757 40.329 222.942 38.7469 222.844 37.8543C222.679 36.4073 221.739 34.8119 220.35 33.6674C219.589 33.0293 217.76 32.2001 216.851 32.0744Z" fill="#BBC1C6"/>
<path d="M175.356 17.6524C174.035 17.4349 172.596 17.6182 171.193 18.2038C168.841 19.1744 168.018 20.1222 166.941 23.0427C165.657 26.5442 164.646 31.5683 164.036 37.5011C163.887 38.8812 163.729 40.3198 163.678 40.6707C163.541 41.6836 163.805 42.1333 164.8 42.542C165.264 42.7328 166.122 42.9459 166.712 43.018C167.302 43.0902 167.831 43.199 167.894 43.2715C168.08 43.5341 167.76 43.8984 166.804 44.5282C165.725 45.2313 165.153 45.7556 164.967 46.2064C164.883 46.3733 164.339 46.7541 163.67 47.0991C162.066 47.9117 161.604 48.3572 161.129 49.5106C160.535 50.9557 160.241 52.5394 159.919 56.1885C159.747 58.0395 159.396 61.3822 159.13 63.613C158.441 69.436 158.387 70.0956 158.459 71.1637C158.616 73.119 158.978 73.748 160.117 74.0303C160.712 74.1664 160.746 74.196 160.626 74.4877C160.561 74.6468 160.002 75.1765 159.388 75.6525C157.795 76.8884 157.609 77.1529 157.007 78.92C156.407 80.719 156.078 82.1959 156.071 83.2313C156.075 83.636 156.033 84.4554 155.974 85.0511C155.862 86.2293 156.17 90.4939 156.438 91.689C157.042 94.2927 161.07 95.9174 164.099 94.8069C166.239 94.0126 168.809 90.699 170.127 87.0408C171.095 84.3854 171.84 79.9338 171.583 78.3715C171.384 77.1585 170.39 76.4862 168.639 76.3711C167.825 76.3155 166.93 76.3815 162.965 76.8284C161.971 76.9467 161.722 76.8751 161.685 76.4728C161.62 75.8413 163.278 74.9733 165.236 74.5846C169.652 73.7188 170.131 73.6835 171.601 74.1792C172.57 74.4999 172.777 74.5231 172.899 74.3406C173.101 74.0364 172.959 73.6677 172.459 73.261C172.063 72.9432 171.835 72.8957 170.143 72.7892C169.116 72.7235 167.913 72.7095 167.465 72.7425C163.656 73.0364 163.077 72.597 165.723 71.4376C166.819 70.9582 167.105 70.905 167.87 71.0028C170.407 71.317 171.767 71.3645 172.285 71.1591C172.777 70.9429 172.831 70.8875 172.964 70.2605C173.053 69.894 173.694 68.2205 174.407 66.5609C176.166 62.433 177.014 59.4651 177.422 56.0218C177.926 51.7809 177.269 49.7596 174.974 48.6305C173.846 48.0581 172.981 48.0126 168.727 48.2944C165.811 48.4903 165.257 48.4797 165.145 48.263C164.922 47.8616 165.089 47.6822 165.986 47.3846C167.215 46.9597 168.836 46.8979 170.851 47.1992C172.704 47.4803 174.032 47.5302 174.113 47.3313C174.141 47.265 174.116 47.0997 174.042 46.9766C173.878 46.6609 171.236 45.8852 170.093 45.8025C169.364 45.7663 169.244 45.7172 169.143 45.474C168.958 45.057 169.348 44.8611 170.525 44.7871C172.246 44.673 173.094 44.8354 174.8 45.6608C175.993 46.2285 176.348 46.3436 176.522 46.2601C176.645 46.1868 177.12 45.5604 177.589 44.8701C178.971 42.8655 180.298 39.3351 181.242 35.2288C182.323 30.5275 182.389 25.1618 181.402 22.6635C180.377 20.1037 177.966 18.0897 175.356 17.6524Z" fill="#BBC1C6"/>
<path d="M249.341 54.6813C248.482 54.5454 245.407 54.8622 244.366 55.2091C243.287 55.5715 241.681 56.5385 240.508 57.5442C239.523 58.3946 238.303 59.8923 234.691 64.6841C233.027 66.883 231.196 69.9427 229.295 73.7019C228.795 74.6901 228.033 75.9419 227.537 76.6213C227.038 77.2687 226.481 78.1711 226.277 78.6297C225.828 79.6849 225.953 79.9842 226.922 80.2276C228.022 80.4936 230.434 81.5626 231.301 82.1671C232.25 82.8363 232.403 83.0693 232.025 83.2707C231.827 83.3753 231.466 83.2734 230.22 82.7611C229.358 82.4069 228.547 82.1197 228.411 82.1104C227.876 82.092 227.964 82.5933 228.698 83.5612C229.825 85.0785 229.448 85.5434 227.672 84.8132C227.248 84.6388 226.49 84.219 225.996 83.8763C224.901 83.1472 223.75 82.705 223.471 82.9313C223.004 83.3129 221.516 85.0103 220.992 85.756C220.684 86.2029 219.722 87.4502 218.852 88.5493C215.665 92.5705 212.468 97.068 212.458 97.5444C212.455 97.8531 212.864 98.2536 213.447 98.4934C213.978 98.7114 214.358 99.3326 214.113 99.5884C213.868 99.8443 212.87 99.8987 211.865 99.7029C210.574 99.451 210.486 99.4768 210.215 100.249C210.013 100.817 209.876 100.962 209.297 101.313C208.028 102.062 207.267 102.896 204.807 106.317C202.148 109.997 201.335 111.446 201.013 113.096C200.505 115.614 201.564 117.94 203.566 118.763C204.494 119.145 206.203 119.398 207.181 119.319C208.681 119.176 210.366 118.319 212.241 116.735C212.944 116.156 213.823 115.525 214.233 115.321C214.623 115.125 215.344 114.616 215.833 114.181C216.308 113.741 216.92 113.233 217.196 113.052C217.587 112.779 217.754 112.523 218.046 111.775C218.572 110.457 218.474 109.641 217.529 107.641C217.057 106.641 216.746 105.738 216.7 105.208C216.625 104.449 216.515 104.264 215.691 103.29C215.191 102.697 214.726 102.057 214.648 101.869C214.523 101.57 214.534 101.544 214.862 101.462C215.625 101.264 216.249 101.443 216.885 102.045C217.222 102.354 218.1 103.01 218.836 103.482C220.404 104.53 221.136 105.125 221.823 105.904C222.097 106.218 222.408 106.516 222.514 106.56C222.726 106.647 225.086 105.091 226.187 104.148C227.896 102.666 229.511 100.509 231.641 96.8746C233.421 93.825 233.418 93.8702 232.368 92.0901C231.589 90.7784 231.356 90.14 231.582 89.8919C231.886 89.5674 232.231 89.8954 233.088 91.317C233.403 91.8337 233.727 92.2148 233.868 92.2108C234.312 92.223 234.507 91.9001 234.489 91.2265C234.464 90.5342 234.213 90.0899 233.01 88.6038C232.5 87.9601 232.322 87.639 232.398 87.4534C232.545 87.0954 233.014 87.3501 234.705 88.6652C236.233 89.8509 236.806 90.04 237.626 89.6645C238.503 89.2655 239.075 88.4777 239.552 87.0155C239.818 86.1796 240.318 85.1142 240.99 83.8562C241.844 82.2698 243.757 78.6705 245.094 76.1357C245.517 75.3332 245.948 74.9992 247.161 74.5369C248.348 74.0637 248.96 73.4786 249.998 71.7822C250.382 71.1496 251.087 70.0756 251.576 69.3775C252.672 67.7668 254.055 64.4765 254.353 62.7704C254.878 59.685 253.656 56.889 251.149 55.4092C250.149 54.8274 250.056 54.7892 249.341 54.6813Z" fill="#BBC1C6"/>
<path d="M131.28 30.0191C129.829 29.7791 128.022 30.2917 126.978 31.2108C125.356 32.6674 124.166 36.1299 123.83 40.3777C123.648 42.7051 123.63 44.5577 123.798 45.1688C124.163 46.5431 125.249 47.0672 128.075 47.2058C130.081 47.302 130.373 47.4219 130.138 47.992C129.887 48.6019 127.75 48.901 126.188 48.5535C125.619 48.4283 125.095 48.3834 125.031 48.4653C124.781 48.7344 124.78 49.3387 125.04 50.0652C125.429 51.1549 125.827 51.2412 127.104 50.5107C127.733 50.1493 128.034 50.0563 128.222 50.1646C128.646 50.4162 128.424 50.8053 127.672 51.1629C127.282 51.3588 126.778 51.6788 126.563 51.9004C126.085 52.3856 125.503 53.727 125.287 54.8935C124.996 56.3548 124.6 60.7485 124.619 62.1355C124.667 64.883 125.507 67.8164 126.94 70.2497C127.999 72.0485 128.834 72.9189 129.768 73.2099C130.413 73.413 130.746 73.3949 132.064 73.1305C132.912 72.9523 133.757 72.8192 133.946 72.8503C134.427 72.924 134.733 73.1585 134.688 73.419C134.627 73.7192 132.969 74.51 132.247 74.5697C131.927 74.5933 131.423 74.7269 131.1 74.8729C130.608 75.0892 130.489 75.2265 130.222 75.8761C129.939 76.5655 129.931 76.8875 130.088 79.1064C130.482 84.4445 131.59 90.8356 132.474 92.9815C132.966 94.16 133.256 94.4343 134.609 94.9902C135.643 95.4152 135.93 95.4712 136.782 95.434C137.93 95.3943 139.239 94.8478 140.058 94.0996C140.539 93.6463 140.693 93.3842 141.306 91.8541C142.127 89.8202 142.412 88.1087 142.52 84.604C142.673 80.2346 142.171 76.4793 140.942 72.7969C140.142 70.4069 139.983 69.2102 140.196 67.2211C140.609 63.5783 139.703 58.6185 137.662 53.1769C136.553 50.2569 136.434 49.0766 136.569 42.716C136.706 36.3873 136.392 34.135 135.179 32.4119C134.33 31.1954 132.795 30.2545 131.28 30.0191Z" fill="#BBC1C6"/>
<path d="M178.001 106.72C176.482 106.344 175.092 106.331 171.328 106.628C166.709 107.007 164.503 106.906 162.614 106.223C161.42 105.81 161.246 105.707 160.248 104.816C159.168 103.861 159.155 103.856 156.207 102.582C152.928 101.172 152.073 100.914 149.902 100.765C146.543 100.531 140.088 101.303 137.612 102.238C137.275 102.378 136.461 102.85 135.818 103.283C135.17 103.729 133.952 104.468 133.104 104.91C128.935 107.133 125.857 109.835 123.988 112.91C121.776 116.557 120.191 119.811 119.933 121.193C119.792 121.988 119.614 122.457 119.1 123.408C117.88 125.696 117.364 127.592 116.633 132.312C116.355 134.12 115.857 137.216 115.503 139.209C115.167 141.194 114.833 143.289 114.753 143.86C114.578 145.23 113.067 153.241 112.328 156.734C111.322 161.481 111.022 164.473 111.188 168.028C111.508 174.715 115.087 180.526 121.349 184.557C123.029 185.635 126.242 187.017 128.798 187.774C132.451 188.841 133.404 188.861 135.617 187.926C136.763 187.437 137.513 187.234 138.768 187.083C141.769 186.72 145.291 186.711 146.126 187.054C146.55 187.229 146.689 187.72 146.421 187.997C146.332 188.1 145.789 188.326 145.194 188.531C144.115 188.893 143.739 189.204 143.697 189.76C143.668 189.98 143.821 190.136 144.258 190.393C144.581 190.588 145.753 191.318 146.867 192.039C150.309 194.26 151.964 195.095 152.128 194.698C152.144 194.658 152.037 193.901 151.894 193.005C150.903 186.895 152.068 182.74 156.859 175.271C157.604 174.136 158.301 173.12 158.421 173.015C158.682 172.797 159.202 172.964 159.342 173.301C159.499 173.675 159.13 174.345 158.275 175.218C154.759 178.871 152.911 183.97 153.281 188.988C153.43 191.002 153.835 192.656 154.639 194.583C156.058 197.956 158.223 200.644 161.14 202.633C162.534 203.578 166.154 205.066 167.928 205.423C171.619 206.134 174.994 205.879 177.798 204.676C179.23 204.056 181.492 202.738 183.309 201.486C186.238 199.451 194.897 192.937 195.872 192.036C198.447 189.654 200.344 187.039 201.749 183.959C203.568 179.949 203.567 179.236 201.737 173.959C200.825 171.352 200.761 170.83 201.19 170.2C201.371 169.949 201.854 168.923 202.274 167.903L203.042 166.033L204.245 164.993C205.428 163.961 205.464 163.913 205.943 162.747C206.63 161.076 206.571 159.936 205.67 157.83C204.66 155.462 203.615 154.459 200.734 153.136C198.845 152.266 196.666 151.572 194.442 151.138C193.491 150.964 192.063 150.517 190.24 149.861C188.034 149.046 187.24 148.829 186.299 148.705C184.801 148.539 184.026 148.314 183.745 147.981C183.624 147.823 183.501 147.292 183.455 146.762C183.382 145.771 183.137 145.236 182.686 145.051C182.527 144.985 181.819 144.973 181.108 145.006C179.247 145.125 174.187 145.896 173.996 146.097C173.77 146.345 174.14 146.915 175.009 147.629C175.762 148.248 176.54 148.692 179.774 150.363C181.939 151.469 182.854 152.109 184.751 153.865C186.807 155.764 187.194 156.217 187.702 157.356C187.939 157.872 188.243 158.338 188.403 158.404C188.707 158.529 188.907 159.138 188.754 159.509C188.656 159.748 188.176 159.86 187.844 159.724C187.738 159.68 187.237 158.978 186.733 158.167C185.729 156.576 184.518 155.149 182.787 153.554C181.615 152.483 178.643 150.626 174.615 148.474C173.571 147.922 172.324 147.223 171.867 146.942C170.816 146.293 170.478 146.247 169.527 146.6C168.213 147.083 167.21 147.073 164.638 146.543C161.147 145.837 157.873 146.676 149.708 150.402C146.561 151.836 145.734 152.302 144.743 153.243C144.093 153.844 143.63 153.917 143.853 153.373C143.978 153.068 146.566 151.033 148.19 149.949C149.612 149.014 153.929 147.147 156.981 146.17C157.771 145.906 159.165 145.456 160.075 145.164C162.008 144.532 163.383 143.827 163.251 143.509C163.204 143.396 162.762 143.153 162.271 142.951C161.576 142.681 160.712 142.558 158.449 142.372C152.621 141.883 150.977 141.47 146.913 139.521C144.4 138.317 143.811 137.905 143.133 136.913C142.787 136.399 142.847 135.99 143.24 136.353C143.807 136.896 145.972 138.189 147.615 138.942C149.659 139.89 152.896 140.988 154.36 141.234C155.434 141.411 156.946 141.351 157.162 141.13C157.25 141.027 157.237 140.758 157.12 140.477L156.917 139.991L154.89 139.266C153.266 138.692 152.887 138.52 152.982 138.404C153.159 138.198 154.265 138.374 156.059 138.91C156.906 139.15 157.647 139.346 157.698 139.335C157.762 139.331 158.656 139.605 159.696 139.94C160.744 140.293 162.096 140.663 162.723 140.797C163.525 140.956 164.536 141.325 166.307 142.068L168.762 143.108L171.72 143.302C174.942 143.495 179.088 143.587 181.203 143.495C182.997 143.427 185.927 142.973 186.307 142.727C187.017 142.244 186.403 141.325 184.811 140.484C184.215 140.162 183.172 139.609 182.51 139.259C180.955 138.404 178.431 137.381 176.273 136.711C175.326 136.415 174.177 136.005 173.705 135.795C173.233 135.586 172.127 135.224 171.243 135C170.358 134.776 168.606 134.288 167.34 133.938C166.073 133.588 164.73 133.237 164.331 133.151C163.946 133.07 163.003 132.837 162.241 132.617C161.493 132.403 160.279 132.151 159.526 132.059C158.792 131.959 157.937 131.778 157.645 131.658C156.982 131.386 154.378 130.935 152.737 130.818C151.683 130.742 151.184 130.598 148.839 129.743C142.592 127.485 139.037 126.783 134.277 126.903C132.216 126.939 132.077 126.975 131.941 127.307C131.794 127.665 132.063 127.915 133.575 128.722C134.754 129.362 135.382 129.605 137.994 130.415C139.677 130.921 141.49 131.449 142.018 131.558C142.698 131.713 143.003 131.838 143.058 131.969C143.175 132.25 142.522 132.292 140.876 132.111C137.643 131.758 134.15 130.679 130.616 128.947C128.962 128.144 128.645 127.936 128.134 127.369C127.454 126.609 127.236 125.745 127.547 124.989C127.792 124.393 128.239 124.173 129.318 124.074C130.058 124.007 130.228 124.046 131.57 124.628C132.765 125.15 133.264 125.294 134.413 125.44C135.179 125.538 136.59 125.762 137.536 125.949C138.487 126.123 140.223 126.387 141.403 126.531C144.485 126.915 145.18 127.108 148.519 128.449C151.6 129.7 151.489 129.67 154.647 130.131C154.92 130.181 155.723 130.264 156.428 130.321C159.056 130.564 166.786 132.006 169.672 132.789C170.551 133.026 171.657 133.388 172.148 133.59C172.625 133.786 173.381 134.019 173.793 134.111C174.582 134.265 176.265 135.034 183.852 138.633C187.069 140.157 187.882 140.631 188.768 141.491C188.947 141.658 189.265 141.866 189.477 141.953C189.689 142.04 190.106 142.382 190.388 142.715C190.67 143.048 190.994 143.351 191.114 143.4C191.432 143.531 194.101 143.296 195.648 143.002C197.157 142.723 199.617 141.828 200.723 141.136C201.893 140.439 203.335 139.079 204.26 137.847C205.045 136.806 205.202 136.499 205.836 134.806C206.609 132.738 206.8 131.406 206.59 129.615C206.188 126.257 204.702 123.879 200.152 119.375C197.94 117.179 197.131 116.583 195.381 115.864C193.3 115.008 193.039 115.227 193.414 117.519C193.581 118.471 193.578 118.78 193.401 118.909C193.029 119.174 192.753 119.014 192.212 118.219C191.672 117.423 188.486 114.238 186.918 112.927C186.424 112.507 185.35 111.725 184.525 111.169C183.695 110.626 182.5 109.686 181.851 109.078C180.849 108.124 179.442 107.096 178.97 106.964C178.898 106.95 178.452 106.828 178.001 106.72ZM186.616 127.913C185.948 129.84 185.684 130.971 185.754 131.744C185.811 132.434 186.684 134.42 187.231 135.125C188.054 136.176 188.2 137.708 187.489 138.005C187.077 138.177 186.755 137.905 186.145 136.864C184.871 134.759 184.464 133.073 184.797 131.319C185.071 129.975 184.558 129.826 183.239 130.849C182.357 131.525 181.553 131.861 180.65 131.908C179.145 131.987 179.031 131.661 180.406 131.219C181.618 130.834 182.963 129.899 185.162 127.905C186.18 126.975 187.057 126.235 187.097 126.252C187.137 126.268 186.922 127.017 186.616 127.913ZM164.989 120.542C165.059 120.711 165.052 121.405 164.998 122.065C164.938 122.738 164.981 123.577 165.087 123.961C165.488 125.397 165.579 126.194 165.482 127.146C165.359 128.351 165.231 128.701 164.808 128.899C163.864 129.348 163.152 128.141 162.951 125.764C162.782 123.836 162.973 122.581 163.626 121.331C164.301 120.027 164.727 119.784 164.989 120.542ZM149.635 116.045C149.285 117.234 149.207 118.782 149.407 120.182C149.497 120.792 149.524 121.594 149.475 121.976C149.397 122.58 149.329 122.707 149.024 122.922C148.51 123.269 147.844 122.964 147.46 122.202C147.157 121.582 147.083 120.141 147.264 118.495C147.468 116.642 149.03 114.463 149.783 115.005C149.852 115.064 149.776 115.514 149.635 116.045Z" fill="#BBC1C6"/>
<path d="M252.279 164.374C250.301 163.87 247.558 163.719 245.811 164.009C243.385 164.406 240.98 165.432 239.846 166.531C238.414 167.942 238.211 168.06 236.608 168.377C234.752 168.746 233.921 168.993 231.362 169.941C225.36 172.138 223.529 172.672 221.019 172.896C219.378 173.043 218.043 172.974 216.67 172.657C214.428 172.154 212.328 172.361 210.339 173.279C209.128 173.85 208.267 174.55 207.431 175.679C206.174 177.379 205.027 181.526 205.186 183.854C205.248 184.948 205.849 186.125 206.628 186.755C207.714 187.62 208.297 187.596 211.176 186.626C213.083 185.983 215.997 185.415 218.742 185.148C222.738 184.776 223.405 184.663 224.593 184.221C225.876 183.741 226.691 183.115 227.358 182.134C227.595 181.782 227.964 181.376 228.191 181.237C228.406 181.093 228.618 180.916 228.65 180.837C228.678 180.77 228.784 180.737 228.89 180.78C229.01 180.829 228.965 181.353 228.72 182.477C228.351 184.278 228.06 186.607 228.182 186.952C228.324 187.398 228.822 187.432 229.661 187.049C230.121 186.835 230.783 186.657 231.129 186.645C231.752 186.637 238.859 187.295 243.802 187.824C247.352 188.199 248.217 188.167 251.29 187.477C254.926 186.663 255.687 186.433 257.251 185.758C262.044 183.637 264.535 180.027 264.246 175.678C264.013 172.172 261.761 169.093 257.653 166.645C256.295 165.838 253.615 164.706 252.279 164.374Z" fill="#BBC1C6"/>
<path d="M200.21 146.117C199.941 146.13 199.357 146.231 198.922 146.347C197.876 146.63 197.435 146.572 195.633 145.94C193.463 145.187 192.035 145.081 190.614 145.597C189.593 145.968 188.864 145.932 187.86 145.472C186.323 144.763 186.028 144.688 185.327 144.772C184.141 144.905 183.95 145.709 184.844 146.852C185.617 147.836 186.039 148.056 187.515 148.198C190.201 148.449 191.338 148.7 193.067 149.395L194.729 150.063L197.481 150.155C200.735 150.269 200.943 150.215 201.439 149.008C201.837 148.041 201.776 147.132 201.265 146.566C200.86 146.12 200.833 146.109 200.21 146.117Z" fill="#BBC1C6"/>
</g>
</svg>
